<svg width="12" height="12" viewBox="0 0 12 12" fill="none" xmlns="http://www.w3.org/2000/svg">
<path d="M10.6873 6.00019C10.6873 6.14937 10.628 6.29245 10.5225 6.39794C10.417 6.50342 10.274 6.56269 10.1248 6.56269H5.43727C5.28808 6.56269 5.14501 6.50342 5.03952 6.39794C4.93403 6.29245 4.87477 6.14937 4.87477 6.00019C4.87477 5.851 4.93403 5.70793 5.03952 5.60244C5.14501 5.49695 5.28808 5.43769 5.43727 5.43769H10.1248C10.274 5.43769 10.417 5.49695 10.5225 5.60244C10.628 5.70793 10.6873 5.851 10.6873 6.00019ZM5.43727 3.56269H10.1248C10.274 3.56269 10.417 3.50342 10.5225 3.39794C10.628 3.29245 10.6873 3.14937 10.6873 3.00019C10.6873 2.851 10.628 2.70793 10.5225 2.60244C10.417 2.49695 10.274 2.43769 10.1248 2.43769H5.43727C5.28808 2.43769 5.14501 2.49695 5.03952 2.60244C4.93403 2.70793 4.87477 2.851 4.87477 3.00019C4.87477 3.14937 4.93403 3.29245 5.03952 3.39794C5.14501 3.50342 5.28808 3.56269 5.43727 3.56269ZM10.1248 8.43769H5.43727C5.28808 8.43769 5.14501 8.49695 5.03952 8.60244C4.93403 8.70793 4.87477 8.851 4.87477 9.00019C4.87477 9.14937 4.93403 9.29245 5.03952 9.39793C5.14501 9.50342 5.28808 9.56269 5.43727 9.56269H10.1248C10.274 9.56269 10.417 9.50342 10.5225 9.39793C10.628 9.29245 10.6873 9.14937 10.6873 9.00019C10.6873 8.851 10.628 8.70793 10.5225 8.60244C10.417 8.49695 10.274 8.43769 10.1248 8.43769ZM2.06227 2.78034V4.87519C2.06227 5.02437 2.12153 5.16745 2.22702 5.27294C2.33251 5.37843 2.47558 5.43769 2.62477 5.43769C2.77395 5.43769 2.91703 5.37843 3.02252 5.27294C3.128 5.16745 3.18727 5.02437 3.18727 4.87519V1.87519C3.18722 1.77936 3.16268 1.68514 3.116 1.60145C3.06931 1.51776 3.00202 1.44739 2.92051 1.39701C2.839 1.34663 2.74596 1.3179 2.65023 1.31357C2.5545 1.30923 2.45925 1.32942 2.37352 1.37222L1.62352 1.74722C1.49937 1.81339 1.40452 1.92368 1.35768 2.05633C1.31084 2.18899 1.3154 2.33438 1.37048 2.46383C1.42556 2.59329 1.52714 2.6974 1.6552 2.75565C1.78326 2.81389 1.9285 2.82203 2.06227 2.77847V2.78034ZM3.92461 7.32066C3.90051 7.14722 3.84157 6.98044 3.75135 6.83037C3.66113 6.68029 3.54148 6.55001 3.39961 6.44738C3.11678 6.24209 2.76553 6.1541 2.41932 6.2018C2.07311 6.2495 1.75874 6.42919 1.54195 6.70331C1.45877 6.81021 1.39282 6.92947 1.34649 7.05675C1.29765 7.1964 1.30579 7.34967 1.36915 7.48336C1.43252 7.61704 1.546 7.72039 1.68501 7.771C1.82403 7.82161 1.97739 7.81542 2.11187 7.75377C2.24636 7.69211 2.35114 7.57996 2.40352 7.44159C2.41026 7.42474 2.41942 7.40895 2.4307 7.39472C2.46704 7.35071 2.51881 7.32223 2.57543 7.31509C2.63205 7.30795 2.68926 7.32268 2.73539 7.35628C2.75569 7.3703 2.77287 7.38837 2.78585 7.40934C2.79884 7.43031 2.80736 7.45374 2.81086 7.47816C2.814 7.50112 2.81242 7.52448 2.80622 7.5468C2.80001 7.56913 2.78931 7.58996 2.77477 7.608L2.76867 7.61597L1.4243 9.41363C1.36187 9.49723 1.32392 9.59655 1.3147 9.70049C1.30548 9.80442 1.32535 9.90888 1.37209 10.0022C1.41884 10.0955 1.49061 10.1739 1.57938 10.2287C1.66815 10.2836 1.77042 10.3126 1.87477 10.3127H3.37477C3.52395 10.3127 3.66703 10.2534 3.77252 10.1479C3.878 10.0424 3.93727 9.89937 3.93727 9.75019C3.93727 9.601 3.878 9.45793 3.77252 9.35244C3.66703 9.24695 3.52395 9.18769 3.37477 9.18769H2.99977L3.66914 8.29191C3.77459 8.15537 3.85155 7.99904 3.89543 7.8322C3.93931 7.66536 3.94924 7.49141 3.92461 7.32066Z" fill="#667085"/>
</svg>
