<svg width="23" height="23" viewBox="0 0 23 23" fill="none" xmlns="http://www.w3.org/2000/svg">
<path d="M11.5337 6.01284C10.8347 6.01284 10.1513 6.22012 9.57014 6.60847C8.98894 6.99682 8.53594 7.5488 8.26844 8.1946C8.00094 8.8404 7.93095 9.55102 8.06732 10.2366C8.20369 10.9222 8.5403 11.5519 9.03457 12.0462C9.52885 12.5405 10.1586 12.8771 10.8442 13.0135C11.5298 13.1498 12.2404 13.0798 12.8862 12.8123C13.532 12.5448 14.084 12.0918 14.4723 11.5106C14.8607 10.9294 15.0679 10.2461 15.0679 9.5471C15.0679 8.60976 14.6956 7.7108 14.0328 7.048C13.37 6.3852 12.471 6.01284 11.5337 6.01284ZM11.5337 11.6677C11.1143 11.6677 10.7043 11.5433 10.3556 11.3103C10.0068 11.0773 9.73503 10.7461 9.57453 10.3586C9.41403 9.97112 9.37204 9.54475 9.45386 9.1334C9.53568 8.72205 9.73765 8.34421 10.0342 8.04764C10.3308 7.75108 10.7086 7.54911 11.12 7.46729C11.5313 7.38547 11.9577 7.42746 12.3452 7.58796C12.7327 7.74846 13.0638 8.02026 13.2969 8.36898C13.5299 8.71771 13.6542 9.12769 13.6542 9.5471C13.6542 10.1095 13.4308 10.6489 13.0331 11.0466C12.6355 11.4442 12.0961 11.6677 11.5337 11.6677ZM11.5337 1.77173C9.47223 1.77407 7.4959 2.59401 6.03824 4.05167C4.58058 5.50932 3.76064 7.48566 3.7583 9.5471C3.7583 12.3215 5.04035 15.262 7.46927 18.0514C8.56067 19.3119 9.78903 20.4469 11.1316 21.4355C11.2505 21.5187 11.3921 21.5634 11.5372 21.5634C11.6823 21.5634 11.8239 21.5187 11.9428 21.4355C13.2829 20.4465 14.5089 19.3115 15.5981 18.0514C18.0235 15.262 19.309 12.3215 19.309 9.5471C19.3067 7.48566 18.4868 5.50932 17.0291 4.05167C15.5714 2.59401 13.5951 1.77407 11.5337 1.77173ZM11.5337 19.9732C10.0731 18.8245 5.172 14.6055 5.172 9.5471C5.172 7.85988 5.84225 6.24177 7.03529 5.04872C8.22834 3.85568 9.84645 3.18543 11.5337 3.18543C13.2209 3.18543 14.839 3.85568 16.0321 5.04872C17.2251 6.24177 17.8953 7.85988 17.8953 9.5471C17.8953 14.6037 12.9942 18.8245 11.5337 19.9732Z" fill="#039855"/>
</svg>
