<svg width="23" height="23" viewBox="0 0 23 23" fill="none" xmlns="http://www.w3.org/2000/svg">
<path d="M11.6499 6.01284C10.9509 6.01284 10.2676 6.22012 9.68635 6.60847C9.10515 6.99682 8.65215 7.5488 8.38465 8.1946C8.11715 8.8404 8.04716 9.55102 8.18353 10.2366C8.3199 10.9222 8.65651 11.5519 9.15078 12.0462C9.64506 12.5405 10.2748 12.8771 10.9604 13.0135C11.646 13.1498 12.3566 13.0798 13.0024 12.8123C13.6482 12.5448 14.2002 12.0918 14.5885 11.5106C14.9769 10.9294 15.1841 10.2461 15.1841 9.5471C15.1841 8.60976 14.8118 7.7108 14.149 7.048C13.4862 6.3852 12.5872 6.01284 11.6499 6.01284ZM11.6499 11.6677C11.2305 11.6677 10.8205 11.5433 10.4718 11.3103C10.123 11.0773 9.85124 10.7461 9.69074 10.3586C9.53024 9.97112 9.48825 9.54475 9.57007 9.1334C9.6519 8.72205 9.85386 8.34421 10.1504 8.04764C10.447 7.75108 10.8248 7.54911 11.2362 7.46729C11.6475 7.38547 12.0739 7.42746 12.4614 7.58796C12.8489 7.74846 13.1801 8.02026 13.4131 8.36898C13.6461 8.71771 13.7704 9.12769 13.7704 9.5471C13.7704 10.1095 13.547 10.6489 13.1493 11.0466C12.7517 11.4442 12.2123 11.6677 11.6499 11.6677ZM11.6499 1.77173C9.58844 1.77407 7.61211 2.59401 6.15445 4.05167C4.69679 5.50932 3.87685 7.48566 3.87451 9.5471C3.87451 12.3215 5.15656 15.262 7.58548 18.0514C8.67688 19.3119 9.90524 20.4469 11.2479 21.4355C11.3667 21.5187 11.5083 21.5634 11.6534 21.5634C11.7985 21.5634 11.9401 21.5187 12.059 21.4355C13.3991 20.4465 14.6251 19.3115 15.7143 18.0514C18.1397 15.262 19.4253 12.3215 19.4253 9.5471C19.4229 7.48566 18.603 5.50932 17.1453 4.05167C15.6877 2.59401 13.7113 1.77407 11.6499 1.77173ZM11.6499 19.9732C10.1894 18.8245 5.28822 14.6055 5.28822 9.5471C5.28822 7.85988 5.95846 6.24177 7.1515 5.04872C8.34455 3.85568 9.96266 3.18543 11.6499 3.18543C13.3371 3.18543 14.9552 3.85568 16.1483 5.04872C17.3413 6.24177 18.0116 7.85988 18.0116 9.5471C18.0116 14.6037 13.1104 18.8245 11.6499 19.9732Z" fill="#98A2B3"/>
</svg>
