<svg width="23" height="23" viewBox="0 0 23 23" fill="none" xmlns="http://www.w3.org/2000/svg">
<path d="M11.5918 6.01284C10.8928 6.01284 10.2095 6.22012 9.62825 6.60847C9.04704 6.99682 8.59405 7.5488 8.32655 8.1946C8.05905 8.8404 7.98906 9.55102 8.12543 10.2366C8.2618 10.9222 8.5984 11.5519 9.09268 12.0462C9.58695 12.5405 10.2167 12.8771 10.9023 13.0135C11.5879 13.1498 12.2985 13.0798 12.9443 12.8123C13.5901 12.5448 14.1421 12.0918 14.5304 11.5106C14.9188 10.9294 15.126 10.2461 15.126 9.5471C15.126 8.60976 14.7537 7.7108 14.0909 7.048C13.4281 6.3852 12.5291 6.01284 11.5918 6.01284ZM11.5918 11.6677C11.1724 11.6677 10.7624 11.5433 10.4137 11.3103C10.0649 11.0773 9.79314 10.7461 9.63264 10.3586C9.47214 9.97112 9.43015 9.54475 9.51197 9.1334C9.59379 8.72205 9.79575 8.34421 10.0923 8.04764C10.3889 7.75108 10.7667 7.54911 11.1781 7.46729C11.5894 7.38547 12.0158 7.42746 12.4033 7.58796C12.7908 7.74846 13.1219 8.02026 13.355 8.36898C13.588 8.71771 13.7123 9.12769 13.7123 9.5471C13.7123 10.1095 13.4889 10.6489 13.0912 11.0466C12.6936 11.4442 12.1542 11.6677 11.5918 11.6677ZM11.5918 1.77173C9.53034 1.77407 7.554 2.59401 6.09634 4.05167C4.63868 5.50932 3.81874 7.48566 3.81641 9.5471C3.81641 12.3215 5.09846 15.262 7.52738 18.0514C8.61878 19.3119 9.84714 20.4469 11.1898 21.4355C11.3086 21.5187 11.4502 21.5634 11.5953 21.5634C11.7404 21.5634 11.882 21.5187 12.0009 21.4355C13.341 20.4465 14.567 19.3115 15.6562 18.0514C18.0816 15.262 19.3671 12.3215 19.3671 9.5471C19.3648 7.48566 18.5449 5.50932 17.0872 4.05167C15.6296 2.59401 13.6532 1.77407 11.5918 1.77173ZM11.5918 19.9732C10.1312 18.8245 5.23011 14.6055 5.23011 9.5471C5.23011 7.85988 5.90036 6.24177 7.0934 5.04872C8.28644 3.85568 9.90456 3.18543 11.5918 3.18543C13.279 3.18543 14.8971 3.85568 16.0902 5.04872C17.2832 6.24177 17.9534 7.85988 17.9534 9.5471C17.9534 14.6037 13.0523 18.8245 11.5918 19.9732Z" fill="#98A2B3"/>
</svg>
