<svg width="24" height="25" viewBox="0 0 24 25" fill="none" xmlns="http://www.w3.org/2000/svg">
<path d="M21.4613 5.19162C21.3714 5.12162 21.2668 5.073 21.1554 5.04944C21.0439 5.02589 20.9286 5.02803 20.8181 5.05569L15.0872 6.48819L9.33563 3.61194C9.17537 3.532 8.99181 3.51205 8.81812 3.55569L2.81812 5.05569C2.65587 5.09624 2.51183 5.18987 2.40889 5.32168C2.30595 5.4535 2.25003 5.61594 2.25 5.78319V19.2832C2.25002 19.3971 2.27601 19.5096 2.32599 19.612C2.37598 19.7144 2.44864 19.8041 2.53847 19.8743C2.62831 19.9444 2.73294 19.9931 2.84442 20.0168C2.95591 20.0404 3.07131 20.0383 3.18187 20.0107L8.91281 18.5782L14.6644 21.4544C14.7688 21.5059 14.8836 21.5328 15 21.5332C15.0613 21.5331 15.1224 21.5256 15.1819 21.5107L21.1819 20.0107C21.3441 19.9701 21.4882 19.8765 21.5911 19.7447C21.694 19.6129 21.75 19.4504 21.75 19.2832V5.78319C21.75 5.66912 21.724 5.55654 21.674 5.45403C21.624 5.35152 21.5512 5.26178 21.4613 5.19162ZM9 17.0332C8.93868 17.0332 8.8776 17.0408 8.81812 17.0557L3.75 18.3222V6.36912L8.91281 5.07819L9 5.12131V17.0332ZM20.25 18.6972L15.0872 19.9882L15 19.9451V8.03319C15.0613 8.03345 15.1224 8.02621 15.1819 8.01162L20.25 6.74412V18.6972Z" fill="#3E7EFF"/>
</svg>
