<svg width="12" height="12" viewBox="0 0 12 12" fill="none" xmlns="http://www.w3.org/2000/svg">
<path d="M10.575 2.93637L6.45 0.678398C6.31215 0.602528 6.15735 0.562744 6 0.562744C5.84265 0.562744 5.68785 0.602528 5.55 0.678398L1.425 2.93637C1.2774 3.01713 1.15425 3.13612 1.06848 3.28087C0.982702 3.42561 0.937461 3.59077 0.9375 3.75902V8.24121C0.937461 8.40946 0.982702 8.57462 1.06848 8.71937C1.15425 8.86411 1.2774 8.98311 1.425 9.06387L5.55 11.3218C5.68782 11.3978 5.84263 11.4376 6 11.4376C6.15737 11.4376 6.31218 11.3978 6.45 11.3218L10.575 9.06387C10.7226 8.98311 10.8457 8.86411 10.9315 8.71937C11.0173 8.57462 11.0625 8.40946 11.0625 8.24121V3.75902C11.0625 3.59077 11.0173 3.42561 10.9315 3.28087C10.8457 3.13612 10.7226 3.01713 10.575 2.93637ZM6 1.71434L9.375 3.56262L8.37047 4.11246L4.99547 2.26465L6 1.71434ZM6 5.40949L2.625 3.56262L3.82312 2.90637L7.19812 4.75371L6 5.40949ZM2.0625 4.53715L5.4375 6.38402V9.97793L2.0625 8.13012V4.53715ZM6.5625 9.97793V6.38402L7.6875 5.76856V7.12512C7.6875 7.2743 7.74676 7.41738 7.85225 7.52286C7.95774 7.62835 8.10082 7.68762 8.25 7.68762C8.39918 7.68762 8.54226 7.62835 8.64775 7.52286C8.75324 7.41738 8.8125 7.2743 8.8125 7.12512V5.15262L9.9375 4.53715V8.13012L6.5625 9.97793Z" fill="#667085"/>
</svg>
