<svg width="23" height="24" viewBox="0 0 23 24" fill="none" xmlns="http://www.w3.org/2000/svg">
<path d="M20.0664 14.4339L15.9057 12.5687L15.8898 12.5616C15.6194 12.445 15.324 12.3981 15.0307 12.4251C14.7375 12.4521 14.4556 12.5522 14.211 12.7162C14.1767 12.7392 14.1437 12.764 14.1121 12.7904L12.1408 14.4692C10.9922 13.8463 9.80557 12.6694 9.18178 11.5349L10.8659 9.53274C10.8929 9.50042 10.918 9.46649 10.941 9.43113C11.1007 9.1874 11.1977 8.90795 11.2233 8.61767C11.2488 8.32739 11.2023 8.03529 11.0876 7.76737C11.0849 7.76224 11.0825 7.75693 11.0806 7.75147L9.21624 3.58369C9.06321 3.23515 8.80203 2.94513 8.47136 2.75656C8.14068 2.56799 7.75809 2.49089 7.38019 2.53667C6.09758 2.70516 4.92016 3.33477 4.06783 4.30791C3.21549 5.28105 2.74654 6.53118 2.74854 7.82481C2.74854 15.0356 8.61453 20.9016 15.8253 20.9016C17.1189 20.9036 18.3691 20.4346 19.3422 19.5823C20.3153 18.7299 20.945 17.5525 21.1134 16.2699C21.1592 15.892 21.0821 15.5094 20.8935 15.1788C20.705 14.8481 20.415 14.5869 20.0664 14.4339ZM15.8253 18.781C12.9206 18.7775 10.1359 17.6221 8.08197 15.5681C6.02804 13.5142 4.8726 10.7295 4.8691 7.82481C4.86707 7.09277 5.1156 6.38207 5.57337 5.81082C6.03114 5.23957 6.6706 4.84216 7.38549 4.68462L9.04836 8.39559L7.35545 10.4119C7.32809 10.4445 7.30271 10.4787 7.27946 10.5144C7.1126 10.7693 7.0145 11.0631 6.99468 11.3672C6.97487 11.6712 7.03401 11.9752 7.16637 12.2497C7.99868 13.9532 9.71368 15.6567 11.4349 16.4908C11.7112 16.6218 12.0167 16.6788 12.3216 16.6564C12.6266 16.6339 12.9205 16.5327 13.1746 16.3627C13.2088 16.3396 13.2415 16.3146 13.2727 16.2876L15.2545 14.6026L18.9655 16.2646C18.808 16.9795 18.4105 17.619 17.8393 18.0767C17.268 18.5345 16.5573 18.783 15.8253 18.781Z" fill="#667085"/>
</svg>
