<svg width="46" height="51" viewBox="0 0 46 51" fill="none" xmlns="http://www.w3.org/2000/svg">
<g clip-path="url(#clip0_2_25522)">
<g filter="url(#filter0_f_2_25522)">
<ellipse cx="19.125" cy="46.2188" rx="6.375" ry="3.1875" fill="black" fill-opacity="0.12"/>
</g>
<path d="M32.5571 32.1824C36.7674 29.2418 39.5 24.502 39.5 19.1557C39.5 10.2332 31.8888 3 22.5 3C13.1112 3 5.5 10.2332 5.5 19.1557C5.5 24.502 8.23261 29.2418 12.4429 32.1824C15.6423 34.4735 20.1522 38.0878 21.1889 43.9055C21.2987 44.5218 21.8423 45 22.5 45C23.1577 45 23.7013 44.5218 23.8111 43.9055C24.8478 38.0878 29.3577 34.4735 32.5571 32.1824Z" fill="#EA382E"/>
<path d="M33.0173 32.833C37.4207 29.7557 40.2969 24.782 40.2969 19.1557C40.2969 9.7553 32.2902 2.20312 22.5 2.20312C12.7098 2.20312 4.70312 9.7553 4.70312 19.1557C4.70312 24.782 7.57931 29.7558 11.9827 32.833C15.1776 35.1212 19.4291 38.572 20.4044 44.0453C20.5805 45.0335 21.4478 45.7969 22.5 45.7969C23.5522 45.7969 24.4195 45.0335 24.5956 44.0453C25.5709 38.572 29.8224 35.1212 33.0173 32.833Z" stroke="url(#paint0_linear_2_25522)" stroke-width="1.59375"/>
<ellipse cx="22.5" cy="19.5" rx="7" ry="6.5" fill="black" fill-opacity="0.4"/>
</g>
<defs>
<filter id="filter0_f_2_25522" x="9.5625" y="39.8438" width="19.125" height="12.75" filterUnits="userSpaceOnUse" color-interpolation-filters="sRGB">
<feFlood flood-opacity="0" result="BackgroundImageFix"/>
<feBlend mode="normal" in="SourceGraphic" in2="BackgroundImageFix" result="shape"/>
<feGaussianBlur stdDeviation="1.59375" result="effect1_foregroundBlur_2_25522"/>
</filter>
<linearGradient id="paint0_linear_2_25522" x1="22.5" y1="3" x2="22.5" y2="45" gradientUnits="userSpaceOnUse">
<stop stop-color="white"/>
<stop offset="1" stop-color="white" stop-opacity="0.35"/>
</linearGradient>
<clipPath id="clip0_2_25522">
<rect width="45.0541" height="51" fill="white"/>
</clipPath>
</defs>
</svg>
