<svg width="33" height="33" viewBox="0 0 33 33" fill="none" xmlns="http://www.w3.org/2000/svg">
<path d="M16.1357 3.7666C13.5646 3.7666 11.0512 4.52904 8.91333 5.9575C6.7755 7.38595 5.10925 9.41628 4.12531 11.7917C3.14137 14.1672 2.88393 16.781 3.38554 19.3028C3.88715 21.8245 5.12528 24.1409 6.94336 25.959C8.76144 27.7771 11.0778 29.0152 13.5996 29.5168C16.1213 30.0184 18.7352 29.761 21.1106 28.777C23.4861 27.7931 25.5164 26.1269 26.9449 23.989C28.3733 21.8512 29.1357 19.3378 29.1357 16.7666C29.1321 13.3199 27.7613 10.0154 25.3241 7.57823C22.8869 5.14105 19.5824 3.77024 16.1357 3.7666ZM16.1357 27.7666C13.9602 27.7666 11.8334 27.1215 10.0245 25.9128C8.21553 24.7041 6.80564 22.9861 5.97307 20.9761C5.14051 18.9661 4.92267 16.7544 5.34711 14.6206C5.77155 12.4868 6.8192 10.5268 8.35757 8.98843C9.89595 7.45005 11.856 6.4024 13.9898 5.97796C16.1235 5.55353 18.3353 5.77136 20.3453 6.60393C22.3553 7.43649 24.0732 8.84639 25.2819 10.6553C26.4906 12.4643 27.1357 14.591 27.1357 16.7666C27.1324 19.683 25.9725 22.4789 23.9103 24.5411C21.8481 26.6033 19.0521 27.7633 16.1357 27.7666ZM20.6907 15.9341L14.6907 11.9341C14.5401 11.8336 14.365 11.7759 14.1841 11.7671C14.0033 11.7584 13.8234 11.7989 13.6638 11.8843C13.5041 11.9698 13.3707 12.097 13.2777 12.2524C13.1847 12.4078 13.1356 12.5855 13.1357 12.7666V20.7666C13.1356 20.9477 13.1847 21.1254 13.2777 21.2808C13.3707 21.4362 13.5041 21.5634 13.6638 21.6489C13.8234 21.7343 14.0033 21.7748 14.1841 21.7661C14.365 21.7573 14.5401 21.6996 14.6907 21.5991L20.6907 17.5991C20.8279 17.5078 20.9404 17.3841 21.0182 17.2388C21.096 17.0936 21.1367 16.9314 21.1367 16.7666C21.1367 16.6018 21.096 16.4396 21.0182 16.2944C20.9404 16.1491 20.8279 16.0254 20.6907 15.9341ZM15.1357 18.8979V14.6416L18.3332 16.7666L15.1357 18.8979Z" fill="#101828"/>
</svg>
