<svg width="33" height="33" viewBox="0 0 33 33" fill="none" xmlns="http://www.w3.org/2000/svg">
<path d="M16.5 3.0332C13.9288 3.0332 11.4154 3.79564 9.27759 5.2241C7.13975 6.65256 5.47351 8.68288 4.48957 11.0583C3.50563 13.4338 3.24819 16.0476 3.7498 18.5694C4.25141 21.0911 5.48953 23.4075 7.30762 25.2256C9.1257 27.0437 11.4421 28.2818 13.9638 28.7834C16.4856 29.285 19.0995 29.0276 21.4749 28.0436C23.8503 27.0597 25.8807 25.3935 27.3091 23.2556C28.7376 21.1178 29.5 18.6044 29.5 16.0332C29.4964 12.5865 28.1256 9.28202 25.6884 6.84483C23.2512 4.40765 19.9467 3.03684 16.5 3.0332ZM16.5 27.0332C14.3244 27.0332 12.1977 26.3881 10.3887 25.1794C8.57979 23.9707 7.16989 22.2527 6.33733 20.2427C5.50477 18.2327 5.28693 16.021 5.71137 13.8872C6.13581 11.7534 7.18345 9.79341 8.72183 8.25503C10.2602 6.71665 12.2202 5.669 14.354 5.24457C16.4878 4.82013 18.6995 5.03796 20.7095 5.87053C22.7195 6.70309 24.4375 8.11299 25.6462 9.92193C26.8549 11.7309 27.5 13.8576 27.5 16.0332C27.4967 18.9496 26.3367 21.7455 24.2745 23.8077C22.2123 25.8699 19.4164 27.0299 16.5 27.0332ZM21.055 15.2007L15.055 11.2007C14.9044 11.1002 14.7293 11.0425 14.5484 11.0337C14.3675 11.025 14.1877 11.0655 14.028 11.1509C13.8684 11.2364 13.7349 11.3636 13.6419 11.519C13.5489 11.6744 13.4999 11.8521 13.5 12.0332V20.0332C13.4999 20.2143 13.5489 20.392 13.6419 20.5474C13.7349 20.7028 13.8684 20.83 14.028 20.9155C14.1877 21.0009 14.3675 21.0414 14.5484 21.0327C14.7293 21.0239 14.9044 20.9662 15.055 20.8657L21.055 16.8657C21.1922 16.7744 21.3047 16.6507 21.3825 16.5054C21.4603 16.3602 21.501 16.198 21.501 16.0332C21.501 15.8684 21.4603 15.7062 21.3825 15.561C21.3047 15.4157 21.1922 15.292 21.055 15.2007ZM15.5 18.1645V13.9082L18.6975 16.0332L15.5 18.1645Z" fill="#101828"/>
</svg>
