<svg width="116" height="28" viewBox="0 0 116 28" fill="none" xmlns="http://www.w3.org/2000/svg">
<path d="M26.5884 20.6493V10.3454H28.9448V11.5347H29.2989C29.4267 11.1346 29.7029 10.7987 30.0706 10.5959C30.471 10.3926 30.9157 10.2923 31.3645 10.3042H32.6162V12.4311H31.3223C30.6267 12.4311 30.0636 12.6156 29.633 12.9845C29.2023 13.3534 28.987 13.9199 28.987 14.6839V20.6493H26.5884Z" fill="#101828"/>
<path d="M39.0817 20.9408C38.052 20.9408 37.1448 20.7218 36.36 20.2838C35.5825 19.854 34.9451 19.2096 34.5238 18.4274C34.0858 17.6285 33.8668 16.6935 33.8668 15.6223V15.3718C33.8668 14.2871 34.0825 13.3481 34.5138 12.5546C34.9276 11.778 35.5563 11.137 36.3248 10.7083C37.1029 10.2703 37.9997 10.0513 39.0153 10.0513C40.0167 10.0513 40.8927 10.2703 41.6433 10.7083C42.3916 11.1438 42.9994 11.7845 43.395 12.5546C43.8116 13.3461 44.0202 14.2707 44.0208 15.3285V16.1837H36.2866C36.3148 16.9886 36.5998 17.6349 37.1418 18.1226C37.6838 18.6102 38.3512 18.8537 39.144 18.853C39.9228 18.853 40.5 18.6826 40.8756 18.3419C41.2376 18.0197 41.5285 17.6256 41.7298 17.1848L43.7119 18.2111C43.4781 18.6426 43.1945 19.0451 42.8668 19.4104C42.4549 19.8674 41.9549 20.2363 41.3968 20.4951C40.7844 20.7922 40.0127 20.9408 39.0817 20.9408ZM36.3077 14.3706H41.5839C41.5289 13.6892 41.2684 13.1468 40.8022 12.7437C40.336 12.3406 39.7347 12.1394 38.9982 12.14C38.2335 12.14 37.6218 12.3413 37.1629 12.7437C36.7041 13.1462 36.4191 13.6885 36.3077 14.3706Z" fill="#101828"/>
<path d="M52.1586 20.9408C51.1859 20.9408 50.4387 20.7704 49.9169 20.4297C49.395 20.0889 49.016 19.7099 48.7799 19.2927H48.4258V20.649H46.0684V6.04883H48.467V11.638H48.8212C48.9866 11.3454 49.2022 11.0842 49.4581 10.8662C49.7725 10.6063 50.1334 10.4082 50.5216 10.2827C51.0508 10.1163 51.604 10.0387 52.1586 10.0533C52.978 10.045 53.7846 10.2562 54.4948 10.665C55.2225 11.095 55.815 11.7203 56.2053 12.47C56.6359 13.2622 56.8512 14.2147 56.8512 15.3275V15.6605C56.8512 16.7733 56.6359 17.7258 56.2053 18.518C55.8137 19.2703 55.2172 19.8964 54.4848 20.324C53.7778 20.7323 52.9749 20.9452 52.1586 20.9408ZM51.4543 18.855C52.3162 18.855 53.0326 18.5733 53.6034 18.0099C54.1742 17.4464 54.4589 16.6435 54.4576 15.6012V15.3939C54.4576 14.3374 54.1762 13.5309 53.6134 12.9741C53.0507 12.4174 52.3309 12.1394 51.4543 12.14C50.5917 12.14 49.8723 12.4181 49.2961 12.9741C48.7199 13.5302 48.4298 14.3368 48.4258 15.3939V15.6022C48.4258 16.6459 48.7142 17.4488 49.291 18.0109C49.8679 18.573 50.5873 18.8544 51.4492 18.855H51.4543Z" fill="#101828"/>
<path d="M62.9213 20.8162C62.1841 20.8302 61.4565 20.6464 60.8144 20.2839C60.2054 19.932 59.7124 19.4099 59.3958 18.7817C59.0604 18.1358 58.8927 17.3815 58.8927 16.5189V10.3452H61.2742V16.3318C61.2742 17.1662 61.4792 17.7846 61.889 18.1871C62.2988 18.5896 62.8794 18.7908 63.6306 18.7908C64.4791 18.7908 65.1499 18.5124 65.6429 17.9557C66.1359 17.399 66.3828 16.5997 66.3834 15.5581V10.3452H68.761V20.6491H66.4247V19.2093H66.0705C65.8894 19.5856 65.5591 19.9472 65.0795 20.294C64.5999 20.6408 63.8805 20.8148 62.9213 20.8162Z" fill="#101828"/>
<path d="M76.2064 20.9407C75.2652 20.9549 74.3346 20.7402 73.4948 20.3149C72.697 19.9072 72.0333 19.2785 71.5832 18.5038C71.1176 17.711 70.8849 16.7585 70.8849 15.6464V15.3536C70.8849 14.2421 71.1176 13.2897 71.5832 12.4961C72.0333 11.7214 72.697 11.0927 73.4948 10.6851C74.3346 10.2598 75.2652 10.045 76.2064 10.0593C77.1937 10.0593 78.0386 10.233 78.7409 10.5804C79.4177 10.9074 80.0019 11.3985 80.4402 12.0092C80.8711 12.6137 81.1565 13.3096 81.2743 14.0426L78.9602 14.5225C78.9101 14.1069 78.7755 13.706 78.5648 13.3443C78.3519 12.9867 78.0449 12.6944 77.6774 12.4992C77.2416 12.2782 76.7571 12.1706 76.2688 12.1862C75.7354 12.1775 75.2085 12.3031 74.7364 12.5515C74.2787 12.8004 73.9075 13.1825 73.6719 13.6472C73.415 14.1328 73.2866 14.7167 73.2866 15.3989V15.6071C73.2866 16.2886 73.415 16.8692 73.6719 17.3488C73.9115 17.8103 74.2818 18.191 74.7364 18.4435C75.2059 18.6964 75.7326 18.8243 76.2657 18.8147C77.1143 18.8147 77.7575 18.5957 78.1955 18.1577C78.6456 17.6941 78.9346 17.0979 79.0196 16.4573L81.3337 16.9996C81.1714 17.7137 80.8665 18.3875 80.4372 18.9807C79.9955 19.5882 79.4121 20.0786 78.7378 20.4095C78.0376 20.7643 77.1937 20.9414 76.2064 20.9407Z" fill="#101828"/>
<path d="M87.928 20.941C86.9687 20.9571 86.0199 20.7388 85.1641 20.3051C84.3659 19.8954 83.7005 19.2673 83.2454 18.4941C82.7792 17.7093 82.5464 16.7672 82.5471 15.6678V15.3348C82.5471 14.236 82.7799 13.2903 83.2454 12.4974C83.6966 11.7211 84.363 11.0921 85.1641 10.6864C86.0218 10.2588 86.9698 10.0441 87.928 10.0605C88.8827 10.0432 89.8274 10.2579 90.6808 10.6864C91.4789 11.0937 92.1426 11.7225 92.5925 12.4974C93.058 13.2903 93.2927 14.236 93.2968 15.3348V15.6678C93.2968 16.7665 93.062 17.7086 92.5925 18.4941C92.1387 19.2659 91.476 19.8937 90.6808 20.3051C89.8292 20.7397 88.8839 20.958 87.928 20.941ZM87.928 18.814C88.8047 18.814 89.5207 18.5323 90.0761 17.9688C90.6315 17.4054 90.9095 16.6163 90.9102 15.6014V15.3941C90.9102 14.3793 90.6322 13.5901 90.0761 13.0267C89.52 12.4632 88.804 12.1815 87.928 12.1815C87.052 12.1815 86.3359 12.4632 85.7799 13.0267C85.2238 13.5901 84.9458 14.3793 84.9458 15.3941V15.6024C84.9458 16.6173 85.2238 17.4064 85.7799 17.9699C86.3359 18.5333 87.052 18.815 87.928 18.815V18.814Z" fill="#101828"/>
<path d="M95.4157 20.649V10.3451H97.7721V11.4921H98.1273C98.342 11.1084 98.6544 10.7883 99.0328 10.5644C99.4567 10.2927 100.023 10.1586 100.732 10.1619C101.483 10.1619 102.086 10.3149 102.543 10.6207C102.988 10.911 103.348 11.3141 103.586 11.7889H103.92C104.154 11.318 104.505 10.9156 104.941 10.6207C105.386 10.3149 106.019 10.1619 106.839 10.1619C107.446 10.1539 108.044 10.2971 108.581 10.5785C109.107 10.8612 109.541 11.2881 109.833 11.809C110.145 12.351 110.301 13.0254 110.302 13.8324V20.653H107.909V13.9954C107.909 13.3977 107.749 12.9423 107.429 12.629C107.109 12.3158 106.664 12.1595 106.095 12.1601C105.469 12.1601 104.972 12.3651 104.603 12.7749C104.234 13.1847 104.05 13.7723 104.05 14.5377V20.649H101.673V13.9954C101.673 13.3977 101.513 12.9423 101.193 12.629C100.873 12.3158 100.428 12.1595 99.8578 12.1601C99.2179 12.1601 98.7175 12.3651 98.3567 12.7749C97.9958 13.1847 97.815 13.7723 97.8144 14.5377V20.649H95.4157Z" fill="#101828"/>
<path d="M20.2235 23.8457H6.66373C6.42312 23.8463 6.18636 23.7854 5.97601 23.6685C5.76567 23.5517 5.58876 23.3829 5.46215 23.1783C5.33553 22.9737 5.26344 22.7401 5.25274 22.4998C5.24204 22.2594 5.29308 22.0203 5.40101 21.8052L9.00301 14.5892L7.35696 14.6143H7.33482C7.09472 14.6145 6.85854 14.5534 6.64872 14.4366C6.4389 14.3199 6.2624 14.1515 6.13599 13.9473C6.00958 13.7432 5.93744 13.5101 5.92644 13.2703C5.91544 13.0304 5.96593 12.7917 6.07312 12.5769L9.88741 4.93018C10.0043 4.69538 10.1845 4.49789 10.4076 4.35994C10.6307 4.222 10.8878 4.14909 11.1501 4.14942L15.6878 4.15847C19.3774 4.15847 22.3807 6.98473 22.3807 10.46C22.3807 13.1936 20.5696 15.4997 17.9909 16.3731L21.4058 21.6694C21.544 21.8821 21.6223 22.1282 21.6322 22.3816C21.6422 22.6351 21.5836 22.8866 21.4625 23.1095C21.3414 23.3324 21.1624 23.5185 20.9443 23.648C20.7262 23.7776 20.4772 23.8459 20.2235 23.8457ZM8.94465 21.0285H17.6347L14.4624 16.1085C14.3155 15.8804 14.2372 15.615 14.237 15.3438C14.237 14.9702 14.3854 14.6119 14.6495 14.3477C14.9137 14.0836 15.272 13.9352 15.6456 13.9352H15.8025C17.8752 13.8808 19.5595 12.3253 19.5595 10.47C19.5595 8.5513 17.8209 6.99077 15.6848 6.99077L12.0184 6.98272L9.63386 11.7569L11.3031 11.7317C11.5473 11.7311 11.7875 11.794 12.0001 11.9142C12.2127 12.0345 12.3904 12.2079 12.5157 12.4176C12.641 12.6272 12.7097 12.8658 12.7149 13.11C12.7202 13.3542 12.6618 13.5956 12.5456 13.8104V13.8185L8.94465 21.0285Z" fill="#D10121"/>
</svg>
