<svg width="116" height="28" viewBox="0 0 116 28" fill="none" xmlns="http://www.w3.org/2000/svg">
<path d="M26.5884 20.6493V10.3454H28.9448V11.5347H29.2989C29.4267 11.1346 29.7029 10.7987 30.0706 10.5959C30.471 10.3926 30.9157 10.2923 31.3645 10.3042H32.6162V12.4311H31.3223C30.6267 12.4311 30.0636 12.6156 29.633 12.9845C29.2023 13.3534 28.987 13.9199 28.987 14.6839V20.6493H26.5884Z" fill="#101828"/>
<path d="M39.0815 20.9408C38.0519 20.9408 37.1447 20.7218 36.3599 20.2838C35.5824 19.854 34.9449 19.2096 34.5237 18.4274C34.0857 17.6285 33.8667 16.6935 33.8667 15.6223V15.3718C33.8667 14.2871 34.0823 13.3481 34.5136 12.5546C34.9275 11.778 35.5562 11.137 36.3247 10.7083C37.1028 10.2703 37.9996 10.0513 39.0151 10.0513C40.0166 10.0513 40.8926 10.2703 41.6432 10.7083C42.3914 11.1438 42.9993 11.7845 43.3949 12.5546C43.8114 13.3461 44.02 14.2707 44.0207 15.3285V16.1837H36.2865C36.3146 16.9886 36.5997 17.6349 37.1417 18.1226C37.6837 18.6102 38.3511 18.8537 39.1439 18.853C39.9227 18.853 40.4999 18.6826 40.8755 18.3419C41.2374 18.0197 41.5283 17.6256 41.7297 17.1848L43.7118 18.2111C43.478 18.6426 43.1943 19.0451 42.8667 19.4104C42.4548 19.8674 41.9548 20.2363 41.3967 20.4951C40.7843 20.7922 40.0126 20.9408 39.0815 20.9408ZM36.3076 14.3706H41.5838C41.5288 13.6892 41.2682 13.1468 40.8021 12.7437C40.3359 12.3406 39.7345 12.1394 38.998 12.14C38.2334 12.14 37.6216 12.3413 37.1628 12.7437C36.704 13.1462 36.419 13.6885 36.3076 14.3706Z" fill="#101828"/>
<path d="M52.1586 20.9408C51.1859 20.9408 50.4387 20.7704 49.9169 20.4297C49.395 20.0889 49.016 19.7099 48.7799 19.2927H48.4258V20.649H46.0684V6.04883H48.467V11.638H48.8212C48.9866 11.3454 49.2022 11.0842 49.4581 10.8662C49.7725 10.6063 50.1334 10.4082 50.5216 10.2827C51.0508 10.1163 51.604 10.0387 52.1586 10.0533C52.978 10.045 53.7846 10.2562 54.4948 10.665C55.2225 11.095 55.815 11.7203 56.2053 12.47C56.6359 13.2622 56.8512 14.2147 56.8512 15.3275V15.6605C56.8512 16.7733 56.6359 17.7258 56.2053 18.518C55.8137 19.2703 55.2172 19.8964 54.4848 20.324C53.7778 20.7323 52.9749 20.9452 52.1586 20.9408ZM51.4543 18.855C52.3162 18.855 53.0326 18.5733 53.6034 18.0099C54.1742 17.4464 54.4589 16.6435 54.4576 15.6012V15.3939C54.4576 14.3374 54.1762 13.5309 53.6134 12.9741C53.0507 12.4174 52.3309 12.1394 51.4543 12.14C50.5917 12.14 49.8723 12.4181 49.2961 12.9741C48.7199 13.5302 48.4298 14.3368 48.4258 15.3939V15.6022C48.4258 16.6459 48.7142 17.4488 49.291 18.0109C49.8679 18.573 50.5873 18.8544 51.4492 18.855H51.4543Z" fill="#101828"/>
<path d="M62.9212 20.8162C62.1839 20.8302 61.4564 20.6464 60.8143 20.2839C60.2053 19.932 59.7122 19.4099 59.3957 18.7817C59.0603 18.1358 58.8926 17.3815 58.8926 16.5189V10.3452H61.2741V16.3318C61.2741 17.1662 61.479 17.7846 61.8889 18.1871C62.2987 18.5896 62.8793 18.7908 63.6305 18.7908C64.479 18.7908 65.1498 18.5124 65.6428 17.9557C66.1358 17.399 66.3827 16.5997 66.3833 15.5581V10.3452H68.7608V20.6491H66.4246V19.2093H66.0704C65.8893 19.5856 65.559 19.9472 65.0794 20.294C64.5998 20.6408 63.8804 20.8148 62.9212 20.8162Z" fill="#101828"/>
<path d="M76.2063 20.9407C75.265 20.9549 74.3345 20.7402 73.4947 20.3149C72.6968 19.9072 72.0332 19.2785 71.583 18.5038C71.1175 17.711 70.8848 16.7585 70.8848 15.6464V15.3536C70.8848 14.2421 71.1175 13.2897 71.583 12.4961C72.0332 11.7214 72.6968 11.0927 73.4947 10.6851C74.3345 10.2598 75.265 10.045 76.2063 10.0593C77.1936 10.0593 78.0384 10.233 78.7407 10.5804C79.4176 10.9074 80.0018 11.3985 80.4401 12.0092C80.871 12.6137 81.1564 13.3096 81.2742 14.0426L78.9601 14.5225C78.9099 14.1069 78.7754 13.706 78.5647 13.3443C78.3518 12.9867 78.0448 12.6944 77.6772 12.4992C77.2414 12.2782 76.757 12.1706 76.2686 12.1862C75.7353 12.1775 75.2083 12.3031 74.7363 12.5515C74.2786 12.8004 73.9073 13.1825 73.6718 13.6472C73.4149 14.1328 73.2864 14.7167 73.2864 15.3989V15.6071C73.2864 16.2886 73.4149 16.8692 73.6718 17.3488C73.9114 17.8103 74.2816 18.191 74.7363 18.4435C75.2058 18.6964 75.7324 18.8243 76.2656 18.8147C77.1141 18.8147 77.7574 18.5957 78.1954 18.1577C78.6455 17.6941 78.9344 17.0979 79.0194 16.4573L81.3336 16.9996C81.1713 17.7137 80.8664 18.3875 80.4371 18.9807C79.9954 19.5882 79.412 20.0786 78.7377 20.4095C78.0374 20.7643 77.1936 20.9414 76.2063 20.9407Z" fill="#101828"/>
<path d="M87.9277 20.941C86.9684 20.9571 86.0197 20.7388 85.1639 20.3051C84.3656 19.8954 83.7002 19.2673 83.2451 18.4941C82.779 17.7093 82.5462 16.7672 82.5469 15.6678V15.3348C82.5469 14.236 82.7796 13.2903 83.2451 12.4974C83.6964 11.7211 84.3628 11.0921 85.1639 10.6864C86.0215 10.2588 86.9695 10.0441 87.9277 10.0605C88.8825 10.0432 89.8272 10.2579 90.6806 10.6864C91.4786 11.0937 92.1424 11.7225 92.5922 12.4974C93.0577 13.2903 93.2925 14.236 93.2965 15.3348V15.6678C93.2965 16.7665 93.0618 17.7086 92.5922 18.4941C92.1385 19.2659 91.4758 19.8937 90.6806 20.3051C89.829 20.7397 88.8836 20.958 87.9277 20.941ZM87.9277 18.814C88.8044 18.814 89.5205 18.5323 90.0759 17.9688C90.6313 17.4054 90.9093 16.6163 90.91 15.6014V15.3941C90.91 14.3793 90.6319 13.5901 90.0759 13.0267C89.5198 12.4632 88.8038 12.1815 87.9277 12.1815C87.0517 12.1815 86.3357 12.4632 85.7796 13.0267C85.2236 13.5901 84.9455 14.3793 84.9455 15.3941V15.6024C84.9455 16.6173 85.2236 17.4064 85.7796 17.9699C86.3357 18.5333 87.0517 18.815 87.9277 18.815V18.814Z" fill="#101828"/>
<path d="M95.4155 20.649V10.3451H97.7719V11.4921H98.1271C98.3418 11.1084 98.6542 10.7883 99.0326 10.5644C99.4565 10.2927 100.023 10.1586 100.732 10.1619C101.483 10.1619 102.086 10.3149 102.543 10.6207C102.988 10.911 103.347 11.3141 103.585 11.7889H103.919C104.154 11.318 104.505 10.9156 104.941 10.6207C105.386 10.3149 106.019 10.1619 106.839 10.1619C107.445 10.1539 108.044 10.2971 108.581 10.5785C109.107 10.8612 109.541 11.2881 109.833 11.809C110.144 12.351 110.301 13.0254 110.301 13.8324V20.653H107.909V13.9954C107.909 13.3977 107.749 12.9423 107.429 12.629C107.109 12.3158 106.664 12.1595 106.095 12.1601C105.469 12.1601 104.972 12.3651 104.603 12.7749C104.234 13.1847 104.05 13.7723 104.05 14.5377V20.649H101.673V13.9954C101.673 13.3977 101.513 12.9423 101.193 12.629C100.873 12.3158 100.428 12.1595 99.8577 12.1601C99.2177 12.1601 98.7174 12.3651 98.3565 12.7749C97.9956 13.1847 97.8148 13.7723 97.8142 14.5377V20.649H95.4155Z" fill="#101828"/>
<path d="M20.2237 23.8457H6.66385C6.42324 23.8463 6.18648 23.7854 5.97614 23.6685C5.76579 23.5517 5.58888 23.3829 5.46227 23.1783C5.33565 22.9737 5.26356 22.7401 5.25286 22.4998C5.24216 22.2594 5.29321 22.0203 5.40114 21.8052L9.00313 14.5892L7.35708 14.6143H7.33495C7.09484 14.6145 6.85866 14.5534 6.64884 14.4366C6.43902 14.3199 6.26253 14.1515 6.13611 13.9473C6.0097 13.7432 5.93757 13.5101 5.92656 13.2703C5.91556 13.0304 5.96605 12.7917 6.07324 12.5769L9.88753 4.93018C10.0044 4.69538 10.1846 4.49789 10.4077 4.35994C10.6308 4.222 10.888 4.14909 11.1502 4.14942L15.688 4.15847C19.3775 4.15847 22.3808 6.98473 22.3808 10.46C22.3808 13.1936 20.5698 15.4997 17.991 16.3731L21.4059 21.6694C21.5441 21.8821 21.6224 22.1282 21.6324 22.3816C21.6424 22.6351 21.5837 22.8866 21.4626 23.1095C21.3415 23.3324 21.1625 23.5185 20.9444 23.648C20.7263 23.7776 20.4773 23.8459 20.2237 23.8457ZM8.94478 21.0285H17.6348L14.4625 16.1085C14.3156 15.8804 14.2374 15.615 14.2371 15.3438C14.2371 14.9702 14.3855 14.6119 14.6497 14.3477C14.9138 14.0836 15.2721 13.9352 15.6457 13.9352H15.8027C17.8753 13.8808 19.5596 12.3253 19.5596 10.47C19.5596 8.5513 17.821 6.99077 15.6849 6.99077L12.0185 6.98272L9.63399 11.7569L11.3032 11.7317C11.5474 11.7311 11.7876 11.794 12.0002 11.9142C12.2128 12.0345 12.3905 12.2079 12.5158 12.4176C12.6411 12.6272 12.7098 12.8658 12.715 13.11C12.7203 13.3542 12.662 13.5956 12.5458 13.8104V13.8185L8.94478 21.0285Z" fill="#D10121"/>
</svg>
