<svg width="203" height="49" viewBox="0 0 203 49" fill="none" xmlns="http://www.w3.org/2000/svg">
<path d="M47.0298 36.136V18.1041H51.1535V20.1853H51.7733C51.9969 19.4852 52.4802 18.8974 53.1237 18.5425C53.8243 18.1867 54.6026 18.0112 55.3881 18.0319H57.5785V21.7541H55.3141C54.0969 21.7541 53.1114 22.0769 52.3578 22.7226C51.6042 23.3682 51.2274 24.3595 51.2274 25.6965V36.136H47.0298Z" fill="#101828"/>
<path d="M68.8931 36.6464C67.0912 36.6464 65.5036 36.2631 64.1302 35.4966C62.7695 34.7446 61.654 33.6168 60.9169 32.248C60.1503 30.85 59.7671 29.2136 59.7671 27.339V26.9006C59.7671 25.0025 60.1445 23.3591 60.8993 21.9705C61.6235 20.6114 62.7238 19.4897 64.0686 18.7395C65.4303 17.973 66.9997 17.5897 68.7769 17.5897C70.5294 17.5897 72.0624 17.973 73.376 18.7395C74.6854 19.5016 75.7491 20.6228 76.4414 21.9705C77.1704 23.3556 77.5354 24.9737 77.5366 26.8249V28.3215H64.0017C64.051 29.7301 64.5499 30.8611 65.4983 31.7145C66.4468 32.5679 67.6148 32.994 69.0022 32.9928C70.3651 32.9928 71.3751 32.6946 72.0325 32.0983C72.6659 31.5344 73.175 30.8448 73.5274 30.0735L76.9961 31.8694C76.5869 32.6245 76.0904 33.3289 75.517 33.9682C74.7963 34.7679 73.9213 35.4136 72.9446 35.8663C71.8729 36.3863 70.5224 36.6464 68.8931 36.6464ZM64.0387 25.1486H73.2721C73.1758 23.956 72.7198 23.007 71.904 22.3015C71.0881 21.596 70.0358 21.2439 68.7469 21.245C67.4088 21.245 66.3382 21.5972 65.5353 22.3015C64.7324 23.0058 64.2335 23.9548 64.0387 25.1486Z" fill="#101828"/>
<path d="M91.7775 36.6459C90.0754 36.6459 88.7678 36.3477 87.8545 35.7514C86.9413 35.1551 86.2781 34.4919 85.8649 33.7618H85.2451V36.1353H81.1196V10.585H85.3173V20.3659H85.9371C86.2265 19.8539 86.6038 19.3968 87.0516 19.0154C87.6019 18.5605 88.2334 18.2139 88.9127 17.9942C89.8389 17.703 90.8069 17.5673 91.7775 17.5928C93.2114 17.5783 94.6231 17.9479 95.8659 18.6633C97.1393 19.4158 98.1763 20.5101 98.8592 21.8221C99.6128 23.2084 99.9896 24.8752 99.9896 26.8226V27.4054C99.9896 29.3528 99.6128 31.0197 98.8592 32.406C98.1739 33.7225 97.1301 34.8182 95.8483 35.5665C94.6112 36.2811 93.2062 36.6536 91.7775 36.6459ZM90.5449 32.9958C92.0533 32.9958 93.307 32.5028 94.3059 31.5168C95.3048 30.5308 95.8031 29.1257 95.8008 27.3016V26.9388C95.8008 25.09 95.3084 23.6785 94.3235 22.7042C93.3387 21.7299 92.0791 21.2434 90.5449 21.2446C89.0354 21.2446 87.7765 21.7311 86.7681 22.7042C85.7598 23.6773 85.2521 25.0889 85.2451 26.9388V27.3033C85.2451 29.1298 85.7498 30.5349 86.7593 31.5186C87.7688 32.5022 89.0278 32.9947 90.5361 32.9958H90.5449Z" fill="#101828"/>
<path d="M110.612 36.4286C109.322 36.4533 108.049 36.1316 106.925 35.4972C105.859 34.8813 104.996 33.9677 104.442 32.8684C103.855 31.738 103.562 30.418 103.562 28.9085V18.1045H107.73V28.581C107.73 30.0412 108.088 31.1235 108.806 31.8278C109.523 32.5321 110.539 32.8843 111.853 32.8843C113.338 32.8843 114.512 32.3971 115.375 31.4228C116.238 30.4485 116.67 29.0499 116.671 27.227V18.1045H120.831V36.1364H116.743V33.6167H116.123C115.806 34.2752 115.228 34.9079 114.389 35.5148C113.55 36.1217 112.291 36.4263 110.612 36.4286Z" fill="#101828"/>
<path d="M133.861 36.6462C132.214 36.6712 130.585 36.2953 129.116 35.5511C127.719 34.8377 126.558 33.7374 125.77 32.3817C124.956 30.9942 124.548 29.3274 124.548 27.3812V26.8688C124.548 24.9237 124.956 23.2569 125.77 21.8682C126.558 20.5125 127.719 19.4123 129.116 18.6989C130.585 17.9546 132.214 17.5788 133.861 17.6037C135.589 17.6037 137.067 17.9077 138.296 18.5158C139.481 19.0879 140.503 19.9474 141.27 21.016C142.024 22.074 142.524 23.2918 142.73 24.5745L138.68 25.4144C138.592 24.6872 138.357 23.9855 137.988 23.3526C137.616 22.7267 137.078 22.2151 136.435 21.8735C135.673 21.4869 134.825 21.2985 133.97 21.3259C133.037 21.3106 132.115 21.5304 131.288 21.9651C130.488 22.4006 129.838 23.0693 129.426 23.8825C128.976 24.7324 128.751 25.7542 128.751 26.948V27.3125C128.751 28.5051 128.976 29.5211 129.426 30.3604C129.845 31.168 130.493 31.8343 131.288 32.2761C132.11 32.7187 133.032 32.9425 133.965 32.9258C135.45 32.9258 136.575 32.5425 137.342 31.776C138.13 30.9647 138.635 29.9213 138.784 28.8003L142.834 29.7494C142.55 30.9989 142.016 32.1782 141.265 33.2163C140.492 34.2793 139.471 35.1376 138.291 35.7166C137.066 36.3375 135.589 36.6474 133.861 36.6462Z" fill="#101828"/>
<path d="M154.374 36.6467C152.695 36.6749 151.035 36.2929 149.537 35.5339C148.14 34.8169 146.976 33.7178 146.179 32.3646C145.364 30.9912 144.956 29.3426 144.958 27.4186V26.8358C144.958 24.9131 145.365 23.258 146.179 21.8705C146.969 20.5119 148.135 19.4111 149.537 18.7011C151.038 17.9529 152.697 17.5772 154.374 17.606C156.045 17.5755 157.698 17.9514 159.191 18.7011C160.588 19.414 161.75 20.5144 162.537 21.8705C163.352 23.258 163.762 24.9131 163.769 26.8358V27.4186C163.769 29.3414 163.359 30.99 162.537 32.3646C161.743 33.7153 160.583 34.8141 159.191 35.5339C157.701 36.2944 156.047 36.6766 154.374 36.6467ZM154.374 32.9245C155.908 32.9245 157.161 32.4315 158.133 31.4455C159.105 30.4595 159.592 29.0784 159.593 27.3024V26.9397C159.593 25.1637 159.106 23.7827 158.133 22.7967C157.16 21.8106 155.907 21.3176 154.374 21.3176C152.841 21.3176 151.588 21.8106 150.615 22.7967C149.642 23.7827 149.155 25.1637 149.155 26.9397V27.3042C149.155 29.0802 149.642 30.4612 150.615 31.4472C151.588 32.4333 152.841 32.9263 154.374 32.9263V32.9245Z" fill="#101828"/>
<path d="M167.478 36.1362V18.1043H171.601V20.1116H172.223C172.599 19.4401 173.145 18.8801 173.807 18.4882C174.549 18.0128 175.541 17.778 176.781 17.7839C178.095 17.7839 179.151 18.0515 179.951 18.5868C180.729 19.0948 181.358 19.8002 181.775 20.631H182.359C182.769 19.807 183.385 19.1028 184.147 18.5868C184.926 18.0515 186.034 17.7839 187.469 17.7839C188.53 17.7699 189.577 18.0204 190.517 18.5128C191.437 19.0075 192.197 19.7546 192.707 20.6662C193.253 21.6147 193.527 22.795 193.528 24.2071V36.1433H189.341V24.4924C189.341 23.4465 189.061 22.6494 188.501 22.1012C187.941 21.5531 187.163 21.2796 186.166 21.2807C185.071 21.2807 184.201 21.6393 183.555 22.3566C182.909 23.0738 182.587 24.1021 182.588 25.4414V36.1362H178.428V24.4924C178.428 23.4465 178.148 22.6494 177.588 22.1012C177.028 21.5531 176.249 21.2796 175.251 21.2807C174.131 21.2807 173.256 21.6393 172.624 22.3566C171.993 23.0738 171.676 24.1021 171.675 25.4414V36.1362H167.478Z" fill="#101828"/>
<path d="M35.8913 41.7302H12.1616C11.7405 41.7314 11.3262 41.6246 10.9581 41.4202C10.59 41.2157 10.2804 40.9204 10.0588 40.5624C9.83727 40.2043 9.71111 39.7955 9.69238 39.3748C9.67365 38.9542 9.76299 38.5357 9.95187 38.1594L16.2554 25.5313L13.3748 25.5753H13.336C12.9158 25.5757 12.5025 25.4687 12.1353 25.2644C11.7682 25.0601 11.4593 24.7653 11.2381 24.4081C11.0169 24.0508 10.8906 23.643 10.8714 23.2232C10.8521 22.8035 10.9405 22.3858 11.128 22.0098L17.8031 8.62806C18.0077 8.21716 18.3229 7.87155 18.7133 7.63015C19.1037 7.38874 19.5538 7.26115 20.0128 7.26172L27.9538 7.27757C34.4105 7.27757 39.6663 12.2235 39.6663 18.3052C39.6663 23.0891 36.497 27.1248 31.9842 28.6531L37.9602 37.9217C38.2021 38.2939 38.339 38.7245 38.3565 39.1681C38.374 39.6117 38.2714 40.0518 38.0595 40.4418C37.8476 40.8319 37.5342 41.1576 37.1526 41.3843C36.771 41.6111 36.3352 41.7306 35.8913 41.7302ZM16.1532 36.8001H31.3609L25.8092 28.19C25.5522 27.791 25.4153 27.3265 25.4148 26.8519C25.4148 26.1981 25.6745 25.5711 26.1368 25.1088C26.5991 24.6465 27.2261 24.3868 27.8799 24.3868H28.1545C31.7817 24.2917 34.7292 21.5696 34.7292 18.3228C34.7292 14.965 31.6866 12.2341 27.9485 12.2341L21.5323 12.22L17.3594 20.5748L20.2804 20.5308C20.7079 20.5297 21.1282 20.6397 21.5003 20.8502C21.8723 21.0606 22.1833 21.3641 22.4026 21.731C22.6219 22.0979 22.742 22.5155 22.7512 22.9428C22.7604 23.3701 22.6583 23.7925 22.455 24.1685V24.1826L16.1532 36.8001Z" fill="#D10121"/>
</svg>
