<svg width="203" height="49" viewBox="0 0 203 49" fill="none" xmlns="http://www.w3.org/2000/svg">
<path d="M47.0297 36.136V18.1041H51.1533V20.1853H51.7731C51.9968 19.4852 52.4801 18.8974 53.1236 18.5425C53.8242 18.1867 54.6025 18.0112 55.388 18.0319H57.5783V21.7541H55.314C54.0967 21.7541 53.1113 22.0769 52.3577 22.7226C51.6041 23.3682 51.2273 24.3595 51.2273 25.6965V36.136H47.0297Z" fill="#101828"/>
<path d="M68.8929 36.6465C67.0911 36.6465 65.5035 36.2632 64.1301 35.4967C62.7694 34.7447 61.6539 33.6169 60.9167 32.2481C60.1502 30.8501 59.767 29.2137 59.767 27.3391V26.9007C59.767 25.0026 60.1444 23.3592 60.8991 21.9706C61.6233 20.6116 62.7236 19.4898 64.0685 18.7396C65.4301 17.9731 66.9996 17.5898 68.7767 17.5898C70.5293 17.5898 72.0623 17.9731 73.3758 18.7396C74.6852 19.5018 75.749 20.6229 76.4413 21.9706C77.1702 23.3557 77.5353 24.9739 77.5365 26.825V28.3216H64.0016C64.0509 29.7302 64.5498 30.8612 65.4982 31.7146C66.4467 32.568 67.6146 32.9941 69.0021 32.9929C70.3649 32.9929 71.375 32.6948 72.0324 32.0985C72.6658 31.5345 73.1748 30.8449 73.5273 30.0736L76.9959 31.8696C76.5867 32.6246 76.0903 33.329 75.5169 33.9684C74.7962 34.768 73.9211 35.4137 72.9444 35.8665C71.8727 36.3865 70.5222 36.6465 68.8929 36.6465ZM64.0386 25.1488H73.2719C73.1757 23.9561 72.7197 23.0071 71.9038 22.3016C71.088 21.5961 70.0357 21.244 68.7468 21.2452C67.4086 21.2452 66.3381 21.5973 65.5352 22.3016C64.7323 23.0059 64.2334 23.955 64.0386 25.1488Z" fill="#101828"/>
<path d="M91.7775 36.6459C90.0754 36.6459 88.7678 36.3477 87.8545 35.7514C86.9413 35.1551 86.2781 34.4919 85.8649 33.7618H85.2451V36.1353H81.1196V10.585H85.3173V20.3659H85.9371C86.2265 19.8539 86.6038 19.3968 87.0516 19.0154C87.6019 18.5605 88.2334 18.2139 88.9127 17.9942C89.8389 17.703 90.8069 17.5673 91.7775 17.5928C93.2114 17.5783 94.6231 17.9479 95.8659 18.6633C97.1393 19.4158 98.1763 20.5101 98.8592 21.8221C99.6128 23.2084 99.9896 24.8752 99.9896 26.8226V27.4054C99.9896 29.3528 99.6128 31.0197 98.8592 32.406C98.1739 33.7225 97.1301 34.8182 95.8483 35.5665C94.6112 36.2811 93.2062 36.6536 91.7775 36.6459ZM90.5449 32.9958C92.0533 32.9958 93.307 32.5028 94.3059 31.5168C95.3048 30.5308 95.8031 29.1257 95.8008 27.3016V26.9388C95.8008 25.09 95.3084 23.6785 94.3235 22.7042C93.3387 21.7299 92.0791 21.2434 90.5449 21.2446C89.0354 21.2446 87.7765 21.7311 86.7681 22.7042C85.7598 23.6773 85.2521 25.0889 85.2451 26.9388V27.3033C85.2451 29.1298 85.7498 30.5349 86.7593 31.5186C87.7688 32.5022 89.0278 32.9947 90.5361 32.9958H90.5449Z" fill="#101828"/>
<path d="M110.612 36.4286C109.322 36.4533 108.049 36.1316 106.925 35.4972C105.859 34.8813 104.997 33.9677 104.443 32.8684C103.856 31.738 103.562 30.418 103.562 28.9085V18.1045H107.73V28.581C107.73 30.0412 108.088 31.1235 108.806 31.8278C109.523 32.5321 110.539 32.8843 111.854 32.8843C113.338 32.8843 114.512 32.3971 115.375 31.4228C116.238 30.4485 116.67 29.0499 116.671 27.227V18.1045H120.832V36.1364H116.743V33.6167H116.123C115.806 34.2752 115.228 34.9079 114.389 35.5148C113.55 36.1217 112.291 36.4263 110.612 36.4286Z" fill="#101828"/>
<path d="M133.861 36.6462C132.214 36.6712 130.586 36.2953 129.116 35.5511C127.72 34.8377 126.558 33.7374 125.77 32.3817C124.956 30.9942 124.549 29.3274 124.549 27.3812V26.8688C124.549 24.9237 124.956 23.2569 125.77 21.8682C126.558 20.5125 127.72 19.4123 129.116 18.6989C130.586 17.9546 132.214 17.5788 133.861 17.6037C135.589 17.6037 137.067 17.9077 138.296 18.5158C139.481 19.0879 140.503 19.9474 141.27 21.016C142.024 22.074 142.524 23.2918 142.73 24.5745L138.68 25.4144C138.593 24.6872 138.357 23.9855 137.988 23.3526C137.616 22.7267 137.079 22.2151 136.435 21.8735C135.673 21.4869 134.825 21.2985 133.97 21.3259C133.037 21.3106 132.115 21.5304 131.289 21.9651C130.488 22.4006 129.838 23.0693 129.426 23.8825C128.976 24.7324 128.751 25.7542 128.751 26.948V27.3125C128.751 28.5051 128.976 29.5211 129.426 30.3604C129.845 31.168 130.493 31.8343 131.289 32.2761C132.11 32.7187 133.032 32.9425 133.965 32.9258C135.45 32.9258 136.576 32.5425 137.342 31.776C138.13 30.9647 138.635 29.9213 138.784 28.8003L142.834 29.7494C142.55 30.9989 142.016 32.1782 141.265 33.2163C140.492 34.2793 139.471 35.1376 138.291 35.7166C137.066 36.3375 135.589 36.6474 133.861 36.6462Z" fill="#101828"/>
<path d="M154.374 36.6467C152.695 36.6749 151.035 36.2929 149.537 35.5339C148.14 34.8169 146.976 33.7178 146.179 32.3646C145.364 30.9912 144.956 29.3426 144.957 27.4186V26.8358C144.957 24.9131 145.365 23.258 146.179 21.8705C146.969 20.5119 148.135 19.4111 149.537 18.7011C151.038 17.9529 152.697 17.5772 154.374 17.606C156.045 17.5755 157.698 17.9514 159.191 18.7011C160.588 19.414 161.749 20.5144 162.537 21.8705C163.351 23.258 163.762 24.9131 163.769 26.8358V27.4186C163.769 29.3414 163.358 30.99 162.537 32.3646C161.743 33.7153 160.583 34.8141 159.191 35.5339C157.701 36.2944 156.047 36.6766 154.374 36.6467ZM154.374 32.9245C155.908 32.9245 157.161 32.4315 158.133 31.4455C159.105 30.4595 159.592 29.0784 159.593 27.3024V26.9397C159.593 25.1637 159.106 23.7827 158.133 22.7967C157.16 21.8106 155.907 21.3176 154.374 21.3176C152.841 21.3176 151.588 21.8106 150.615 22.7967C149.642 23.7827 149.155 25.1637 149.155 26.9397V27.3042C149.155 29.0802 149.642 30.4612 150.615 31.4472C151.588 32.4333 152.841 32.9263 154.374 32.9263V32.9245Z" fill="#101828"/>
<path d="M167.477 36.1363V18.1045H171.601V20.1117H172.223C172.598 19.4403 173.145 18.8802 173.807 18.4883C174.549 18.0129 175.541 17.7781 176.781 17.784C178.095 17.784 179.151 18.0516 179.951 18.5869C180.729 19.0949 181.358 19.8003 181.775 20.6311H182.359C182.769 19.8071 183.385 19.1029 184.147 18.5869C184.926 18.0516 186.033 17.784 187.469 17.784C188.53 17.77 189.577 18.0205 190.517 18.513C191.437 19.0076 192.197 19.7547 192.707 20.6664C193.253 21.6148 193.527 22.7951 193.528 24.2072V36.1434H189.341V24.4925C189.341 23.4466 189.061 22.6496 188.501 22.1014C187.941 21.5532 187.163 21.2797 186.166 21.2809C185.071 21.2809 184.201 21.6395 183.555 22.3567C182.909 23.0739 182.587 24.1022 182.588 25.4415V36.1363H178.428V24.4925C178.428 23.4466 178.148 22.6496 177.588 22.1014C177.028 21.5532 176.249 21.2797 175.251 21.2809C174.131 21.2809 173.256 21.6395 172.624 22.3567C171.993 23.0739 171.676 24.1022 171.675 25.4415V36.1363H167.477Z" fill="#101828"/>
<path d="M35.8912 41.7302H12.1615C11.7404 41.7314 11.3261 41.6246 10.958 41.4202C10.5899 41.2157 10.2803 40.9204 10.0587 40.5624C9.83715 40.2043 9.71099 39.7955 9.69226 39.3748C9.67353 38.9542 9.76287 38.5357 9.95174 38.1594L16.2552 25.5313L13.3746 25.5753H13.3359C12.9157 25.5757 12.5024 25.4687 12.1352 25.2644C11.768 25.0601 11.4592 24.7653 11.238 24.4081C11.0167 24.0508 10.8905 23.643 10.8712 23.2232C10.852 22.8035 10.9403 22.3858 11.1279 22.0098L17.8029 8.62806C18.0075 8.21716 18.3228 7.87155 18.7132 7.63015C19.1036 7.38874 19.5537 7.26115 20.0127 7.26172L27.9537 7.27757C34.4104 7.27757 39.6662 12.2235 39.6662 18.3052C39.6662 23.0891 36.4969 27.1248 31.984 28.6531L37.96 37.9217C38.202 38.2939 38.3389 38.7245 38.3564 39.1681C38.3739 39.6117 38.2712 40.0518 38.0593 40.4418C37.8474 40.8319 37.5341 41.1576 37.1525 41.3843C36.7709 41.6111 36.3351 41.7306 35.8912 41.7302ZM16.1531 36.8001H31.3607L25.8091 28.19C25.5521 27.791 25.4151 27.3265 25.4147 26.8519C25.4147 26.1981 25.6744 25.5711 26.1367 25.1088C26.599 24.6465 27.226 24.3868 27.8797 24.3868H28.1544C31.7816 24.2917 34.7291 21.5696 34.7291 18.3228C34.7291 14.965 31.6865 12.2341 27.9484 12.2341L21.5322 12.22L17.3592 20.5748L20.2803 20.5308C20.7077 20.5297 21.1281 20.6397 21.5002 20.8502C21.8722 21.0606 22.1831 21.3641 22.4024 21.731C22.6217 22.0979 22.7419 22.5155 22.7511 22.9428C22.7603 23.3701 22.6582 23.7925 22.4549 24.1685V24.1826L16.1531 36.8001Z" fill="#D10121"/>
</svg>
