<svg width="203" height="50" viewBox="0 0 203 50" fill="none" xmlns="http://www.w3.org/2000/svg">
<path d="M47.0298 36.6692V18.6373H51.1535V20.7185H51.7733C51.9969 20.0185 52.4802 19.4306 53.1237 19.0757C53.8243 18.7199 54.6026 18.5444 55.3881 18.5651H57.5785V22.2873H55.3141C54.0969 22.2873 53.1114 22.6102 52.3578 23.2558C51.6042 23.9014 51.2274 24.8927 51.2274 26.2297V36.6692H47.0298Z" fill="#101828"/>
<path d="M68.8931 37.1796C67.0912 37.1796 65.5036 36.7963 64.1302 36.0298C62.7695 35.2778 61.654 34.15 60.9169 32.7812C60.1503 31.3832 59.7671 29.7468 59.7671 27.8722V27.4338C59.7671 25.5357 60.1445 23.8923 60.8993 22.5037C61.6235 21.1446 62.7238 20.0229 64.0686 19.2727C65.4303 18.5062 66.9997 18.1229 68.7769 18.1229C70.5294 18.1229 72.0624 18.5062 73.376 19.2727C74.6854 20.0348 75.7491 21.156 76.4414 22.5037C77.1704 23.8888 77.5354 25.5069 77.5366 27.3581V28.8547H64.0017C64.051 30.2633 64.5499 31.3943 65.4983 32.2477C66.4468 33.1011 67.6148 33.5272 69.0022 33.526C70.3651 33.526 71.3751 33.2278 72.0325 32.6315C72.6659 32.0676 73.175 31.378 73.5274 30.6067L76.9961 32.4026C76.5869 33.1577 76.0904 33.8621 75.517 34.5015C74.7963 35.3011 73.9213 35.9468 72.9446 36.3995C71.8729 36.9196 70.5224 37.1796 68.8931 37.1796ZM64.0387 25.6818H73.2721C73.1758 24.4892 72.7198 23.5402 71.904 22.8347C71.0881 22.1292 70.0358 21.7771 68.7469 21.7782C67.4088 21.7782 66.3382 22.1304 65.5353 22.8347C64.7324 23.539 64.2335 24.488 64.0387 25.6818Z" fill="#101828"/>
<path d="M91.7775 37.1791C90.0754 37.1791 88.7678 36.8809 87.8545 36.2846C86.9413 35.6883 86.2781 35.0251 85.8649 34.295H85.2451V36.6685H81.1196V11.1182H85.3173V20.8991H85.9371C86.2265 20.3871 86.6038 19.93 87.0516 19.5486C87.6019 19.0937 88.2334 18.7471 88.9127 18.5274C89.8389 18.2362 90.8069 18.1005 91.7775 18.126C93.2114 18.1115 94.6231 18.4811 95.8659 19.1965C97.1393 19.949 98.1763 21.0433 98.8592 22.3553C99.6128 23.7416 99.9896 25.4084 99.9896 27.3558V27.9386C99.9896 29.886 99.6128 31.5529 98.8592 32.9392C98.1739 34.2557 97.1301 35.3514 95.8483 36.0997C94.6112 36.8143 93.2062 37.1868 91.7775 37.1791ZM90.5449 33.529C92.0533 33.529 93.307 33.036 94.3059 32.05C95.3048 31.064 95.8031 29.6589 95.8008 27.8348V27.472C95.8008 25.6232 95.3084 24.2117 94.3235 23.2374C93.3387 22.2631 92.0791 21.7766 90.5449 21.7778C89.0354 21.7778 87.7765 22.2643 86.7681 23.2374C85.7598 24.2105 85.2521 25.6221 85.2451 27.472V27.8365C85.2451 29.663 85.7498 31.0681 86.7593 32.0518C87.7688 33.0354 89.0278 33.5279 90.5361 33.529H90.5449Z" fill="#101828"/>
<path d="M110.612 36.9619C109.322 36.9865 108.049 36.6648 106.925 36.0304C105.859 35.4145 104.996 34.5009 104.442 33.4016C103.855 32.2712 103.562 30.9512 103.562 29.4417V18.6377H107.73V29.1142C107.73 30.5744 108.088 31.6567 108.806 32.361C109.523 33.0653 110.539 33.4175 111.853 33.4175C113.338 33.4175 114.512 32.9303 115.375 31.956C116.238 30.9817 116.67 29.5831 116.671 27.7602V18.6377H120.831V36.6696H116.743V34.1499H116.123C115.806 34.8085 115.228 35.4411 114.389 36.048C113.55 36.6549 112.291 36.9595 110.612 36.9619Z" fill="#101828"/>
<path d="M133.861 37.1794C132.214 37.2044 130.585 36.8285 129.116 36.0843C127.719 35.3709 126.558 34.2706 125.77 32.9149C124.956 31.5274 124.548 29.8606 124.548 27.9144V27.402C124.548 25.4569 124.956 23.7901 125.77 22.4014C126.558 21.0457 127.719 19.9455 129.116 19.2321C130.585 18.4879 132.214 18.112 133.861 18.1369C135.589 18.1369 137.067 18.4409 138.296 19.049C139.481 19.6211 140.503 20.4806 141.27 21.5492C142.024 22.6072 142.524 23.825 142.73 25.1077L138.68 25.9476C138.592 25.2204 138.357 24.5187 137.988 23.8858C137.616 23.2599 137.078 22.7483 136.435 22.4067C135.673 22.0201 134.825 21.8317 133.97 21.8591C133.037 21.8438 132.115 22.0636 131.288 22.4983C130.488 22.9338 129.838 23.6025 129.426 24.4157C128.976 25.2656 128.751 26.2874 128.751 27.4812V27.8457C128.751 29.0383 128.976 30.0543 129.426 30.8936C129.845 31.7012 130.493 32.3675 131.288 32.8093C132.11 33.2519 133.032 33.4757 133.965 33.459C135.45 33.459 136.575 33.0757 137.342 32.3092C138.13 31.4979 138.635 30.4545 138.784 29.3335L142.834 30.2826C142.55 31.5321 142.016 32.7114 141.265 33.7495C140.492 34.8125 139.471 35.6708 138.291 36.2498C137.066 36.8707 135.589 37.1806 133.861 37.1794Z" fill="#101828"/>
<path d="M154.374 37.1799C152.695 37.2081 151.035 36.8261 149.537 36.0671C148.14 35.3501 146.976 34.251 146.179 32.8978C145.364 31.5244 144.956 29.8758 144.958 27.9518V27.369C144.958 25.4463 145.365 23.7912 146.179 22.4037C146.969 21.0451 148.135 19.9443 149.537 19.2344C151.038 18.4861 152.697 18.1104 154.374 18.1392C156.045 18.1087 157.698 18.4846 159.191 19.2344C160.588 19.9472 161.75 21.0476 162.537 22.4037C163.352 23.7912 163.762 25.4463 163.769 27.369V27.9518C163.769 29.8746 163.359 31.5232 162.537 32.8978C161.743 34.2485 160.583 35.3473 159.191 36.0671C157.701 36.8276 156.047 37.2098 154.374 37.1799ZM154.374 33.4577C155.908 33.4577 157.161 32.9647 158.133 31.9787C159.105 30.9927 159.592 29.6116 159.593 27.8356V27.4729C159.593 25.6969 159.106 24.3159 158.133 23.3299C157.16 22.3438 155.907 21.8508 154.374 21.8508C152.841 21.8508 151.588 22.3438 150.615 23.3299C149.642 24.3159 149.155 25.6969 149.155 27.4729V27.8374C149.155 29.6134 149.642 30.9944 150.615 31.9804C151.588 32.9665 152.841 33.4595 154.374 33.4595V33.4577Z" fill="#101828"/>
<path d="M167.478 36.6694V18.6375H171.601V20.6448H172.223C172.599 19.9733 173.145 19.4133 173.807 19.0214C174.549 18.546 175.541 18.3112 176.781 18.3171C178.095 18.3171 179.151 18.5847 179.951 19.12C180.729 19.628 181.358 20.3334 181.775 21.1642H182.359C182.769 20.3402 183.385 19.636 184.147 19.12C184.926 18.5847 186.034 18.3171 187.469 18.3171C188.53 18.3031 189.577 18.5536 190.517 19.046C191.437 19.5407 192.197 20.2878 192.707 21.1994C193.253 22.1479 193.527 23.3282 193.528 24.7403V36.6765H189.341V25.0256C189.341 23.9797 189.061 23.1826 188.501 22.6345C187.941 22.0863 187.163 21.8128 186.166 21.8139C185.071 21.8139 184.201 22.1725 183.555 22.8898C182.909 23.607 182.587 24.6353 182.588 25.9746V36.6694H178.428V25.0256C178.428 23.9797 178.148 23.1826 177.588 22.6345C177.028 22.0863 176.249 21.8128 175.251 21.8139C174.131 21.8139 173.256 22.1725 172.624 22.8898C171.993 23.607 171.676 24.6353 171.675 25.9746V36.6694H167.478Z" fill="#101828"/>
<path d="M35.8913 42.2634H12.1616C11.7405 42.2646 11.3262 42.1578 10.9581 41.9534C10.59 41.7489 10.2804 41.4536 10.0588 41.0956C9.83727 40.7375 9.71111 40.3287 9.69238 39.908C9.67365 39.4874 9.76299 39.0689 9.95187 38.6926L16.2554 26.0645L13.3748 26.1085H13.336C12.9158 26.1089 12.5025 26.0019 12.1353 25.7976C11.7682 25.5933 11.4593 25.2985 11.2381 24.9413C11.0169 24.584 10.8906 24.1762 10.8714 23.7564C10.8521 23.3367 10.9405 22.919 11.128 22.543L17.8031 9.16127C18.0077 8.75037 18.3229 8.40475 18.7133 8.16335C19.1037 7.92195 19.5538 7.79435 20.0128 7.79492L27.9538 7.81077C34.4105 7.81077 39.6663 12.7567 39.6663 18.8384C39.6663 23.6223 36.497 27.658 31.9842 29.1863L37.9602 38.4549C38.2021 38.8271 38.339 39.2577 38.3565 39.7013C38.374 40.1449 38.2714 40.585 38.0595 40.975C37.8476 41.3651 37.5342 41.6908 37.1526 41.9175C36.771 42.1443 36.3352 42.2638 35.8913 42.2634ZM16.1532 37.3333H31.3609L25.8092 28.7232C25.5522 28.3242 25.4153 27.8597 25.4148 27.3851C25.4148 26.7313 25.6745 26.1043 26.1368 25.642C26.5991 25.1797 27.2261 24.92 27.8799 24.92H28.1545C31.7817 24.8249 34.7292 22.1028 34.7292 18.856C34.7292 15.4982 31.6866 12.7673 27.9485 12.7673L21.5323 12.7532L17.3594 21.108L20.2804 21.064C20.7079 21.0629 21.1282 21.1729 21.5003 21.3834C21.8723 21.5938 22.1833 21.8973 22.4026 22.2642C22.6219 22.6311 22.742 23.0487 22.7512 23.476C22.7604 23.9033 22.6583 24.3257 22.455 24.7017V24.7158L16.1532 37.3333Z" fill="#D10121"/>
</svg>
