<svg width="116" height="28" viewBox="0 0 116 28" fill="none" xmlns="http://www.w3.org/2000/svg">
<path d="M26.5884 20.6493V10.3454H28.9448V11.5347H29.2989C29.4267 11.1346 29.7029 10.7987 30.0706 10.5959C30.471 10.3926 30.9157 10.2923 31.3645 10.3042H32.6162V12.4311H31.3223C30.6267 12.4311 30.0636 12.6156 29.633 12.9845C29.2023 13.3534 28.987 13.9199 28.987 14.6839V20.6493H26.5884Z" fill="#101828"/>
<path d="M39.0818 20.9408C38.0522 20.9408 37.145 20.7218 36.3602 20.2838C35.5826 19.854 34.9452 19.2096 34.524 18.4274C34.0859 17.6285 33.8669 16.6935 33.8669 15.6223V15.3718C33.8669 14.2871 34.0826 13.3481 34.5139 12.5546C34.9277 11.778 35.5565 11.137 36.325 10.7083C37.103 10.2703 37.9998 10.0513 39.0154 10.0513C40.0168 10.0513 40.8929 10.2703 41.6434 10.7083C42.3917 11.1438 42.9995 11.7845 43.3951 12.5546C43.8117 13.3461 44.0203 14.2707 44.021 15.3285V16.1837H36.2867C36.3149 16.9886 36.6 17.6349 37.1419 18.1226C37.6839 18.6102 38.3513 18.8537 39.1442 18.853C39.9229 18.853 40.5001 18.6826 40.8757 18.3419C41.2377 18.0197 41.5286 17.6256 41.73 17.1848L43.7121 18.2111C43.4782 18.6426 43.1946 19.0451 42.8669 19.4104C42.4551 19.8674 41.955 20.2363 41.3969 20.4951C40.7845 20.7922 40.0128 20.9408 39.0818 20.9408ZM36.3078 14.3706H41.5841C41.5291 13.6892 41.2685 13.1468 40.8023 12.7437C40.3361 12.3406 39.7348 12.1394 38.9983 12.14C38.2336 12.14 37.6219 12.3413 37.1631 12.7437C36.7043 13.1462 36.4192 13.6885 36.3078 14.3706Z" fill="#101828"/>
<path d="M52.1586 20.9408C51.1859 20.9408 50.4387 20.7704 49.9169 20.4297C49.395 20.0889 49.016 19.7099 48.7799 19.2927H48.4258V20.649H46.0684V6.04883H48.467V11.638H48.8212C48.9866 11.3454 49.2022 11.0842 49.4581 10.8662C49.7725 10.6063 50.1334 10.4082 50.5216 10.2827C51.0508 10.1163 51.604 10.0387 52.1586 10.0533C52.978 10.045 53.7846 10.2562 54.4948 10.665C55.2225 11.095 55.815 11.7203 56.2053 12.47C56.6359 13.2622 56.8512 14.2147 56.8512 15.3275V15.6605C56.8512 16.7733 56.6359 17.7258 56.2053 18.518C55.8137 19.2703 55.2172 19.8964 54.4848 20.324C53.7778 20.7323 52.9749 20.9452 52.1586 20.9408ZM51.4543 18.855C52.3162 18.855 53.0326 18.5733 53.6034 18.0099C54.1742 17.4464 54.4589 16.6435 54.4576 15.6012V15.3939C54.4576 14.3374 54.1762 13.5309 53.6134 12.9741C53.0507 12.4174 52.3309 12.1394 51.4543 12.14C50.5917 12.14 49.8723 12.4181 49.2961 12.9741C48.7199 13.5302 48.4298 14.3368 48.4258 15.3939V15.6022C48.4258 16.6459 48.7142 17.4488 49.291 18.0109C49.8679 18.573 50.5873 18.8544 51.4492 18.855H51.4543Z" fill="#101828"/>
<path d="M62.9212 20.8162C62.1839 20.8302 61.4564 20.6464 60.8143 20.2839C60.2053 19.932 59.7122 19.4099 59.3957 18.7817C59.0603 18.1358 58.8926 17.3815 58.8926 16.5189V10.3452H61.2741V16.3318C61.2741 17.1662 61.479 17.7846 61.8889 18.1871C62.2987 18.5896 62.8793 18.7908 63.6305 18.7908C64.479 18.7908 65.1498 18.5124 65.6428 17.9557C66.1358 17.399 66.3827 16.5997 66.3833 15.5581V10.3452H68.7608V20.6491H66.4246V19.2093H66.0704C65.8893 19.5856 65.559 19.9472 65.0794 20.294C64.5998 20.6408 63.8804 20.8148 62.9212 20.8162Z" fill="#101828"/>
<path d="M76.2065 20.9407C75.2653 20.9549 74.3347 20.7402 73.4949 20.3149C72.6971 19.9072 72.0334 19.2785 71.5833 18.5038C71.1178 17.711 70.885 16.7585 70.885 15.6464V15.3536C70.885 14.2421 71.1178 13.2897 71.5833 12.4961C72.0334 11.7214 72.6971 11.0927 73.4949 10.6851C74.3347 10.2598 75.2653 10.045 76.2065 10.0593C77.1939 10.0593 78.0387 10.233 78.741 10.5804C79.4178 10.9074 80.002 11.3985 80.4404 12.0092C80.8712 12.6137 81.1566 13.3096 81.2745 14.0426L78.9603 14.5225C78.9102 14.1069 78.7756 13.706 78.5649 13.3443C78.352 12.9867 78.0451 12.6944 77.6775 12.4992C77.2417 12.2782 76.7573 12.1706 76.2689 12.1862C75.7355 12.1775 75.2086 12.3031 74.7365 12.5515C74.2788 12.8004 73.9076 13.1825 73.672 13.6472C73.4151 14.1328 73.2867 14.7167 73.2867 15.3989V15.6071C73.2867 16.2886 73.4151 16.8692 73.672 17.3488C73.9116 17.8103 74.2819 18.191 74.7365 18.4435C75.206 18.6964 75.7327 18.8243 76.2659 18.8147C77.1144 18.8147 77.7576 18.5957 78.1957 18.1577C78.6458 17.6941 78.9347 17.0979 79.0197 16.4573L81.3338 16.9996C81.1715 17.7137 80.8666 18.3875 80.4373 18.9807C79.9956 19.5882 79.4123 20.0786 78.738 20.4095C78.0377 20.7643 77.1939 20.9414 76.2065 20.9407Z" fill="#101828"/>
<path d="M87.928 20.941C86.9687 20.9571 86.0199 20.7388 85.1641 20.3051C84.3659 19.8954 83.7005 19.2673 83.2454 18.4941C82.7792 17.7093 82.5464 16.7672 82.5471 15.6678V15.3348C82.5471 14.236 82.7799 13.2903 83.2454 12.4974C83.6966 11.7211 84.363 11.0921 85.1641 10.6864C86.0218 10.2588 86.9698 10.0441 87.928 10.0605C88.8827 10.0432 89.8274 10.2579 90.6808 10.6864C91.4789 11.0937 92.1426 11.7225 92.5925 12.4974C93.058 13.2903 93.2927 14.236 93.2968 15.3348V15.6678C93.2968 16.7665 93.062 17.7086 92.5925 18.4941C92.1387 19.2659 91.476 19.8937 90.6808 20.3051C89.8292 20.7397 88.8839 20.958 87.928 20.941ZM87.928 18.814C88.8047 18.814 89.5207 18.5323 90.0761 17.9688C90.6315 17.4054 90.9095 16.6163 90.9102 15.6014V15.3941C90.9102 14.3793 90.6322 13.5901 90.0761 13.0267C89.52 12.4632 88.804 12.1815 87.928 12.1815C87.052 12.1815 86.3359 12.4632 85.7799 13.0267C85.2238 13.5901 84.9458 14.3793 84.9458 15.3941V15.6024C84.9458 16.6173 85.2238 17.4064 85.7799 17.9699C86.3359 18.5333 87.052 18.815 87.928 18.815V18.814Z" fill="#101828"/>
<path d="M95.4158 20.649V10.3451H97.7722V11.4921H98.1273C98.3421 11.1084 98.6545 10.7883 99.0329 10.5644C99.4568 10.2927 100.023 10.1586 100.732 10.1619C101.483 10.1619 102.087 10.3149 102.543 10.6207C102.988 10.911 103.348 11.3141 103.586 11.7889H103.92C104.154 11.318 104.506 10.9156 104.941 10.6207C105.386 10.3149 106.019 10.1619 106.84 10.1619C107.446 10.1539 108.044 10.2971 108.581 10.5785C109.107 10.8612 109.541 11.2881 109.833 11.809C110.145 12.351 110.301 13.0254 110.302 13.8324V20.653H107.909V13.9954C107.909 13.3977 107.749 12.9423 107.429 12.629C107.109 12.3158 106.664 12.1595 106.095 12.1601C105.469 12.1601 104.972 12.3651 104.603 12.7749C104.234 13.1847 104.05 13.7723 104.051 14.5377V20.649H101.673V13.9954C101.673 13.3977 101.513 12.9423 101.193 12.629C100.873 12.3158 100.428 12.1595 99.8579 12.1601C99.218 12.1601 98.7176 12.3651 98.3567 12.7749C97.9959 13.1847 97.8151 13.7723 97.8144 14.5377V20.649H95.4158Z" fill="#101828"/>
<path d="M20.2234 23.8457H6.6636C6.423 23.8463 6.18624 23.7854 5.97589 23.6685C5.76555 23.5517 5.58864 23.3829 5.46202 23.1783C5.33541 22.9737 5.26332 22.7401 5.25261 22.4998C5.24191 22.2594 5.29296 22.0203 5.40089 21.8052L9.00289 14.5892L7.35684 14.6143H7.3347C7.09459 14.6145 6.85842 14.5534 6.6486 14.4366C6.43878 14.3199 6.26228 14.1515 6.13587 13.9473C6.00946 13.7432 5.93732 13.5101 5.92632 13.2703C5.91531 13.0304 5.96581 12.7917 6.073 12.5769L9.88729 4.93018C10.0042 4.69538 10.1843 4.49789 10.4074 4.35994C10.6305 4.222 10.8877 4.14909 11.15 4.14942L15.6877 4.15847C19.3772 4.15847 22.3806 6.98473 22.3806 10.46C22.3806 13.1936 20.5695 15.4997 17.9908 16.3731L21.4056 21.6694C21.5439 21.8821 21.6221 22.1282 21.6321 22.3816C21.6421 22.6351 21.5835 22.8866 21.4624 23.1095C21.3413 23.3324 21.1623 23.5185 20.9442 23.648C20.7261 23.7776 20.4771 23.8459 20.2234 23.8457ZM8.94453 21.0285H17.6346L14.4622 16.1085C14.3154 15.8804 14.2371 15.615 14.2369 15.3438C14.2369 14.9702 14.3853 14.6119 14.6494 14.3477C14.9136 14.0836 15.2719 13.9352 15.6455 13.9352H15.8024C17.8751 13.8808 19.5594 12.3253 19.5594 10.47C19.5594 8.5513 17.8207 6.99077 15.6847 6.99077L12.0183 6.98272L9.63374 11.7569L11.3029 11.7317C11.5472 11.7311 11.7874 11.794 12 11.9142C12.2126 12.0345 12.3903 12.2079 12.5156 12.4176C12.6409 12.6272 12.7095 12.8658 12.7148 13.11C12.72 13.3542 12.6617 13.5956 12.5455 13.8104V13.8185L8.94453 21.0285Z" fill="#D10121"/>
</svg>
