<svg width="12" height="12" viewBox="0 0 12 12" fill="none" xmlns="http://www.w3.org/2000/svg">
<path d="M10.6801 2.19799C10.6661 1.96959 10.569 1.75419 10.4072 1.59238C10.2454 1.43058 10.03 1.33354 9.80162 1.31955C9.18615 1.28346 7.6149 1.33924 6.31037 2.6433L6.14021 2.81252H3.48521C3.36204 2.81211 3.24002 2.83618 3.12623 2.88333C3.01245 2.93049 2.90917 2.99979 2.8224 3.08721L1.21224 4.69642C1.08898 4.81963 1.0025 4.97476 0.962509 5.14439C0.922522 5.31403 0.930613 5.49145 0.985872 5.65674C1.04113 5.82203 1.14137 5.96864 1.27534 6.08012C1.4093 6.1916 1.57169 6.26353 1.74427 6.28783L3.48521 6.53064L5.46896 8.51439L5.71224 10.2572C5.73594 10.4301 5.80768 10.5928 5.9193 10.7269C6.03093 10.861 6.17796 10.961 6.34365 11.0156C6.44001 11.0472 6.54084 11.063 6.64224 11.0625C6.7651 11.0624 6.88673 11.0381 7.00016 10.9909C7.11358 10.9437 7.21656 10.8745 7.30318 10.7874L8.91287 9.17721C9.00015 9.09036 9.06934 8.98706 9.11641 8.87329C9.16348 8.75951 9.1875 8.63752 9.18708 8.51439V5.85939L9.35583 5.69111C10.6604 4.38471 10.7161 2.81252 10.6801 2.19799ZM3.56208 3.93752H5.01521L3.55037 5.40377L2.27396 5.22564L3.56208 3.93752ZM7.10583 3.43924C7.42681 3.11561 7.80978 2.86009 8.23184 2.68797C8.65389 2.51584 9.10633 2.43066 9.56208 2.43752C9.56921 2.89342 9.48411 3.34605 9.31189 3.76823C9.13967 4.19041 8.88388 4.57341 8.5599 4.89424L5.99958 7.45314L4.54646 6.00002L7.10583 3.43924ZM8.06208 8.43752L6.77349 9.72611L6.59537 8.44971L8.06208 6.98439V8.43752ZM4.70255 9.45096C4.29662 10.0149 3.47583 10.6875 1.87458 10.6875C1.7254 10.6875 1.58233 10.6283 1.47684 10.5228C1.37135 10.4173 1.31208 10.2742 1.31208 10.125C1.31208 8.52424 1.98474 7.70346 2.54912 7.29705C2.67037 7.21701 2.8179 7.18699 2.96079 7.21328C3.10369 7.23958 3.23087 7.32014 3.31569 7.43811C3.40051 7.55607 3.4364 7.70228 3.41583 7.84611C3.39527 7.98994 3.31985 8.12024 3.20537 8.20971C2.92412 8.41174 2.60115 8.79564 2.48255 9.51611C3.20302 9.39752 3.58693 9.07361 3.78896 8.7933C3.8307 8.73007 3.88477 8.67593 3.94795 8.63411C4.01113 8.5923 4.0821 8.56368 4.15661 8.54997C4.23112 8.53626 4.30763 8.53774 4.38155 8.55433C4.45547 8.57091 4.52528 8.60226 4.58679 8.64649C4.6483 8.69072 4.70024 8.74692 4.7395 8.81171C4.77876 8.87651 4.80452 8.94857 4.81524 9.02356C4.82597 9.09856 4.82143 9.17495 4.8019 9.24815C4.78238 9.32135 4.74827 9.38986 4.70162 9.44955L4.70255 9.45096Z" fill="#667085"/>
</svg>
