<svg width="12" height="12" viewBox="0 0 12 12" fill="none" xmlns="http://www.w3.org/2000/svg">
<path d="M10.6875 1.875V3.75C10.6875 3.89918 10.6282 4.04226 10.5227 4.14775C10.4173 4.25324 10.2742 4.3125 10.125 4.3125C9.97582 4.3125 9.83274 4.25324 9.72725 4.14775C9.62176 4.04226 9.5625 3.89918 9.5625 3.75V2.4375H8.25C8.10082 2.4375 7.95774 2.37824 7.85225 2.27275C7.74676 2.16726 7.6875 2.02418 7.6875 1.875C7.6875 1.72582 7.74676 1.58274 7.85225 1.47725C7.95774 1.37176 8.10082 1.3125 8.25 1.3125H10.125C10.2742 1.3125 10.4173 1.37176 10.5227 1.47725C10.6282 1.58274 10.6875 1.72582 10.6875 1.875ZM3.75 9.5625H2.4375V8.25C2.4375 8.10082 2.37824 7.95774 2.27275 7.85225C2.16726 7.74676 2.02418 7.6875 1.875 7.6875C1.72582 7.6875 1.58274 7.74676 1.47725 7.85225C1.37176 7.95774 1.3125 8.10082 1.3125 8.25V10.125C1.3125 10.2742 1.37176 10.4173 1.47725 10.5227C1.58274 10.6282 1.72582 10.6875 1.875 10.6875H3.75C3.89918 10.6875 4.04226 10.6282 4.14775 10.5227C4.25324 10.4173 4.3125 10.2742 4.3125 10.125C4.3125 9.97582 4.25324 9.83274 4.14775 9.72725C4.04226 9.62176 3.89918 9.5625 3.75 9.5625ZM10.125 7.6875C9.97582 7.6875 9.83274 7.74676 9.72725 7.85225C9.62176 7.95774 9.5625 8.10082 9.5625 8.25V9.5625H8.25C8.10082 9.5625 7.95774 9.62176 7.85225 9.72725C7.74676 9.83274 7.6875 9.97582 7.6875 10.125C7.6875 10.2742 7.74676 10.4173 7.85225 10.5227C7.95774 10.6282 8.10082 10.6875 8.25 10.6875H10.125C10.2742 10.6875 10.4173 10.6282 10.5227 10.5227C10.6282 10.4173 10.6875 10.2742 10.6875 10.125V8.25C10.6875 8.10082 10.6282 7.95774 10.5227 7.85225C10.4173 7.74676 10.2742 7.6875 10.125 7.6875ZM1.875 4.3125C2.02418 4.3125 2.16726 4.25324 2.27275 4.14775C2.37824 4.04226 2.4375 3.89918 2.4375 3.75V2.4375H3.75C3.89918 2.4375 4.04226 2.37824 4.14775 2.27275C4.25324 2.16726 4.3125 2.02418 4.3125 1.875C4.3125 1.72582 4.25324 1.58274 4.14775 1.47725C4.04226 1.37176 3.89918 1.3125 3.75 1.3125H1.875C1.72582 1.3125 1.58274 1.37176 1.47725 1.47725C1.37176 1.58274 1.3125 1.72582 1.3125 1.875V3.75C1.3125 3.89918 1.37176 4.04226 1.47725 4.14775C1.58274 4.25324 1.72582 4.3125 1.875 4.3125ZM7.6875 8.625H4.3125C4.06386 8.625 3.8254 8.52623 3.64959 8.35041C3.47377 8.1746 3.375 7.93614 3.375 7.6875V4.3125C3.375 4.06386 3.47377 3.8254 3.64959 3.64959C3.8254 3.47377 4.06386 3.375 4.3125 3.375H7.6875C7.93614 3.375 8.1746 3.47377 8.35041 3.64959C8.52623 3.8254 8.625 4.06386 8.625 4.3125V7.6875C8.625 7.93614 8.52623 8.1746 8.35041 8.35041C8.1746 8.52623 7.93614 8.625 7.6875 8.625ZM7.5 4.5H4.5V7.5H7.5V4.5Z" fill="white"/>
</svg>
