<svg width="12" height="12" viewBox="0 0 12 12" fill="none" xmlns="http://www.w3.org/2000/svg">
<path d="M10.5567 2.63953C10.5039 2.5763 10.4379 2.52544 10.3633 2.49053C10.2887 2.45562 10.2074 2.43751 10.125 2.4375H2.71875L2.51859 1.33219C2.47929 1.11618 2.36542 0.920811 2.19684 0.780152C2.02826 0.639494 1.81565 0.562467 1.59609 0.5625H0.75C0.600816 0.5625 0.457742 0.621763 0.352252 0.727252C0.246763 0.832742 0.1875 0.975816 0.1875 1.125C0.1875 1.27418 0.246763 1.41726 0.352252 1.52275C0.457742 1.62824 0.600816 1.6875 0.75 1.6875H1.43953L2.60719 8.10938C2.63854 8.27994 2.70338 8.44261 2.79797 8.58797C2.63051 8.78391 2.51636 9.0197 2.46654 9.2726C2.41672 9.52549 2.43291 9.78696 2.51355 10.0318C2.59419 10.2766 2.73655 10.4965 2.9269 10.6703C3.11726 10.8441 3.34919 10.9659 3.60031 11.0239C3.85144 11.082 4.1133 11.0744 4.36062 11.0018C4.60795 10.9292 4.8324 10.7942 5.01233 10.6096C5.19225 10.425 5.32158 10.1972 5.38785 9.94812C5.45411 9.69903 5.45507 9.43707 5.39062 9.1875H6.98437C6.90617 9.49037 6.92461 9.8101 7.03711 10.102C7.14961 10.3938 7.35054 10.6432 7.61178 10.8153C7.87302 10.9873 8.18151 11.0734 8.49408 11.0614C8.80665 11.0494 9.10767 10.9401 9.355 10.7486C9.60234 10.5571 9.78363 10.2931 9.8735 9.99347C9.96337 9.69386 9.95733 9.37365 9.85622 9.07764C9.75511 8.78163 9.56399 8.52464 9.30961 8.34262C9.05522 8.1606 8.7503 8.06266 8.4375 8.0625H3.89859C3.85476 8.06245 3.81232 8.04704 3.77867 8.01895C3.74501 7.99086 3.72227 7.95187 3.71437 7.90875L3.60562 7.3125H8.81719C9.12463 7.3125 9.42232 7.20457 9.65833 7.00754C9.89434 6.81051 10.0537 6.53688 10.1086 6.23438L10.6786 3.10031C10.6932 3.01927 10.6899 2.936 10.6689 2.85638C10.6478 2.77676 10.6095 2.70273 10.5567 2.63953ZM4.3125 9.5625C4.3125 9.63667 4.29051 9.70917 4.2493 9.77084C4.2081 9.83251 4.14953 9.88057 4.08101 9.90895C4.01248 9.93734 3.93708 9.94476 3.86434 9.93029C3.7916 9.91582 3.72478 9.88011 3.67233 9.82767C3.61989 9.77522 3.58417 9.7084 3.56971 9.63566C3.55524 9.56292 3.56266 9.48752 3.59104 9.41899C3.61943 9.35047 3.66749 9.2919 3.72916 9.2507C3.79083 9.20949 3.86333 9.1875 3.9375 9.1875C4.03696 9.1875 4.13234 9.22701 4.20266 9.29733C4.27299 9.36766 4.3125 9.46304 4.3125 9.5625ZM8.4375 9.9375C8.36333 9.9375 8.29083 9.91551 8.22916 9.8743C8.16749 9.8331 8.11943 9.77453 8.09104 9.70601C8.06266 9.63748 8.05524 9.56208 8.06971 9.48934C8.08417 9.4166 8.11989 9.34978 8.17233 9.29733C8.22478 9.24489 8.2916 9.20918 8.36434 9.19471C8.43708 9.18024 8.51248 9.18766 8.58101 9.21605C8.64953 9.24443 8.7081 9.29249 8.7493 9.35416C8.79051 9.41583 8.8125 9.48833 8.8125 9.5625C8.8125 9.66196 8.77299 9.75734 8.70266 9.82767C8.63234 9.89799 8.53696 9.9375 8.4375 9.9375ZM9 6.03375C8.99215 6.07663 8.96961 6.11544 8.93624 6.1435C8.90288 6.17156 8.86078 6.18712 8.81719 6.1875H3.40125L2.92406 3.5625H9.45094L9 6.03375Z" fill="white"/>
</svg>
