<svg width="12" height="12" viewBox="0 0 12 12" fill="none" xmlns="http://www.w3.org/2000/svg">
<path d="M6.5625 1.5V3C6.5625 3.14918 6.50324 3.29226 6.39775 3.39775C6.29226 3.50324 6.14918 3.5625 6 3.5625C5.85082 3.5625 5.70774 3.50324 5.60225 3.39775C5.49676 3.29226 5.4375 3.14918 5.4375 3V1.5C5.4375 1.35082 5.49676 1.20774 5.60225 1.10225C5.70774 0.996763 5.85082 0.9375 6 0.9375C6.14918 0.9375 6.29226 0.996763 6.39775 1.10225C6.50324 1.20774 6.5625 1.35082 6.5625 1.5ZM8.12109 4.44141C8.19502 4.4414 8.26821 4.42683 8.3365 4.39852C8.40479 4.3702 8.46682 4.32871 8.51906 4.27641L9.57984 3.21562C9.68552 3.10995 9.74488 2.96663 9.74488 2.81719C9.74488 2.66774 9.68552 2.52442 9.57984 2.41875C9.47417 2.31308 9.33085 2.25371 9.18141 2.25371C9.03196 2.25371 8.88864 2.31308 8.78297 2.41875L7.72359 3.48094C7.64487 3.55958 7.59123 3.6598 7.56948 3.76893C7.54772 3.87806 7.55882 3.99119 7.60137 4.09401C7.64393 4.19683 7.71602 4.28472 7.80853 4.34655C7.90104 4.40839 8.00982 4.4414 8.12109 4.44141ZM10.5 5.4375H9C8.85082 5.4375 8.70774 5.49676 8.60225 5.60225C8.49676 5.70774 8.4375 5.85082 8.4375 6C8.4375 6.14918 8.49676 6.29226 8.60225 6.39775C8.70774 6.50324 8.85082 6.5625 9 6.5625H10.5C10.6492 6.5625 10.7923 6.50324 10.8977 6.39775C11.0032 6.29226 11.0625 6.14918 11.0625 6C11.0625 5.85082 11.0032 5.70774 10.8977 5.60225C10.7923 5.49676 10.6492 5.4375 10.5 5.4375ZM8.51906 7.72359C8.46674 7.67127 8.40462 7.62977 8.33626 7.60145C8.26789 7.57313 8.19462 7.55856 8.12063 7.55856C8.04663 7.55856 7.97336 7.57313 7.90499 7.60145C7.83663 7.62977 7.77451 7.67127 7.72219 7.72359C7.66986 7.77592 7.62836 7.83803 7.60004 7.9064C7.57172 7.97476 7.55715 8.04803 7.55715 8.12203C7.55715 8.19603 7.57172 8.2693 7.60004 8.33766C7.62836 8.40603 7.66986 8.46815 7.72219 8.52047L8.78297 9.58125C8.88864 9.68692 9.03196 9.74629 9.18141 9.74629C9.33085 9.74629 9.47417 9.68692 9.57984 9.58125C9.68552 9.47558 9.74488 9.33226 9.74488 9.18281C9.74488 9.03337 9.68552 8.89005 9.57984 8.78437L8.51906 7.72359ZM6 8.4375C5.85082 8.4375 5.70774 8.49676 5.60225 8.60225C5.49676 8.70774 5.4375 8.85082 5.4375 9V10.5C5.4375 10.6492 5.49676 10.7923 5.60225 10.8977C5.70774 11.0032 5.85082 11.0625 6 11.0625C6.14918 11.0625 6.29226 11.0032 6.39775 10.8977C6.50324 10.7923 6.5625 10.6492 6.5625 10.5V9C6.5625 8.85082 6.50324 8.70774 6.39775 8.60225C6.29226 8.49676 6.14918 8.4375 6 8.4375ZM3.48094 7.72359L2.42016 8.78437C2.31448 8.89005 2.25512 9.03337 2.25512 9.18281C2.25512 9.33226 2.31448 9.47558 2.42016 9.58125C2.52583 9.68692 2.66915 9.74629 2.81859 9.74629C2.96804 9.74629 3.11136 9.68692 3.21703 9.58125L4.27781 8.52047C4.38348 8.4148 4.44285 8.27147 4.44285 8.12203C4.44285 7.97259 4.38348 7.82927 4.27781 7.72359C4.17214 7.61792 4.02882 7.55856 3.87937 7.55856C3.72993 7.55856 3.58661 7.61792 3.48094 7.72359ZM3.5625 6C3.5625 5.85082 3.50324 5.70774 3.39775 5.60225C3.29226 5.49676 3.14918 5.4375 3 5.4375H1.5C1.35082 5.4375 1.20774 5.49676 1.10225 5.60225C0.996763 5.70774 0.9375 5.85082 0.9375 6C0.9375 6.14918 0.996763 6.29226 1.10225 6.39775C1.20774 6.50324 1.35082 6.5625 1.5 6.5625H3C3.14918 6.5625 3.29226 6.50324 3.39775 6.39775C3.50324 6.29226 3.5625 6.14918 3.5625 6ZM3.21562 2.42016C3.10995 2.31448 2.96663 2.25512 2.81719 2.25512C2.66774 2.25512 2.52442 2.31448 2.41875 2.42016C2.31308 2.52583 2.25371 2.66915 2.25371 2.81859C2.25371 2.96804 2.31308 3.11136 2.41875 3.21703L3.48094 4.27641C3.58661 4.38208 3.72993 4.44144 3.87937 4.44144C4.02882 4.44144 4.17214 4.38208 4.27781 4.27641C4.38348 4.17073 4.44285 4.02741 4.44285 3.87797C4.44285 3.72853 4.38348 3.5852 4.27781 3.47953L3.21562 2.42016Z" fill="white"/>
</svg>
