<svg width="33" height="32" viewBox="0 0 33 32" fill="none" xmlns="http://www.w3.org/2000/svg">
<path d="M29.8334 12C29.8339 11.907 29.8213 11.8144 29.7959 11.725L28.0021 5.45C27.8816 5.03364 27.6296 4.66745 27.2837 4.40612C26.9379 4.14478 26.5168 4.00232 26.0834 4H7.58337C7.14992 4.00232 6.72884 4.14478 6.38302 4.40612C6.0372 4.66745 5.78519 5.03364 5.66463 5.45L3.87212 11.725C3.8463 11.8144 3.83326 11.907 3.83337 12V14C3.83337 14.7762 4.0141 15.5418 4.36124 16.2361C4.70838 16.9303 5.21239 17.5343 5.83337 18V26C5.83337 26.5304 6.04409 27.0391 6.41916 27.4142C6.79423 27.7893 7.30294 28 7.83337 28H25.8334C26.3638 28 26.8725 27.7893 27.2476 27.4142C27.6227 27.0391 27.8334 26.5304 27.8334 26V18C28.4544 17.5343 28.9584 16.9303 29.3055 16.2361C29.6526 15.5418 29.8334 14.7762 29.8334 14V12ZM11.8334 14C11.8332 14.5159 11.7 15.023 11.4466 15.4724C11.1932 15.9217 10.8283 16.2982 10.387 16.5653C9.94563 16.8325 9.44288 16.9813 8.92725 16.9975C8.41162 17.0136 7.90054 16.8965 7.44337 16.6575C7.37381 16.6034 7.2973 16.5588 7.21587 16.525C6.79222 16.2538 6.44356 15.8804 6.20198 15.4392C5.9604 14.9979 5.83364 14.503 5.83337 14V13H11.8334V14ZM19.8334 14C19.8334 14.7956 19.5173 15.5587 18.9547 16.1213C18.3921 16.6839 17.629 17 16.8334 17C16.0377 17 15.2747 16.6839 14.7121 16.1213C14.1494 15.5587 13.8334 14.7956 13.8334 14V13H19.8334V14ZM27.8334 14C27.833 14.5032 27.706 14.9981 27.4642 15.4394C27.2224 15.8806 26.8735 16.2539 26.4496 16.525C26.3693 16.5589 26.2936 16.603 26.2246 16.6562C25.7675 16.8955 25.2564 17.0129 24.7407 16.9969C24.225 16.981 23.7221 16.8323 23.2807 16.5653C22.8392 16.2982 22.4741 15.9218 22.2205 15.4725C21.967 15.0231 21.8337 14.516 21.8334 14V13H27.8334V14Z" fill="#D10121"/>
</svg>
