<svg width="33" height="32" viewBox="0 0 33 32" fill="none" xmlns="http://www.w3.org/2000/svg">
<path d="M29.8335 12C29.834 11.907 29.8214 11.8144 29.796 11.725L28.0022 5.45C27.8817 5.03364 27.6297 4.66745 27.2839 4.40612C26.938 4.14478 26.517 4.00232 26.0835 4H7.5835C7.15004 4.00232 6.72896 4.14478 6.38314 4.40612C6.03732 4.66745 5.78531 5.03364 5.66475 5.45L3.87225 11.725C3.84642 11.8144 3.83338 11.907 3.8335 12V14C3.8335 14.7762 4.01422 15.5418 4.36136 16.2361C4.7085 16.9303 5.21252 17.5343 5.8335 18V26C5.8335 26.5304 6.04421 27.0391 6.41928 27.4142C6.79436 27.7893 7.30306 28 7.8335 28H25.8335C26.3639 28 26.8726 27.7893 27.2477 27.4142C27.6228 27.0391 27.8335 26.5304 27.8335 26V18C28.4545 17.5343 28.9585 16.9303 29.3056 16.2361C29.6528 15.5418 29.8335 14.7762 29.8335 14V12ZM11.8335 14C11.8333 14.5159 11.7001 15.023 11.4467 15.4724C11.1934 15.9217 10.8284 16.2982 10.3871 16.5653C9.94576 16.8325 9.443 16.9813 8.92737 16.9975C8.41174 17.0136 7.90066 16.8965 7.4435 16.6575C7.37393 16.6034 7.29742 16.5588 7.216 16.525C6.79234 16.2538 6.44369 15.8804 6.2021 15.4392C5.96052 14.9979 5.83376 14.503 5.8335 14V13H11.8335V14ZM19.8335 14C19.8335 14.7956 19.5174 15.5587 18.9548 16.1213C18.3922 16.6839 17.6291 17 16.8335 17C16.0378 17 15.2748 16.6839 14.7122 16.1213C14.1496 15.5587 13.8335 14.7956 13.8335 14V13H19.8335V14ZM27.8335 14C27.8331 14.5032 27.7061 14.9981 27.4643 15.4394C27.2225 15.8806 26.8736 16.2539 26.4497 16.525C26.3694 16.5589 26.2938 16.603 26.2247 16.6562C25.7676 16.8955 25.2565 17.0129 24.7408 16.9969C24.2251 16.981 23.7222 16.8323 23.2808 16.5653C22.8393 16.2982 22.4742 15.9218 22.2206 15.4725C21.9671 15.0231 21.8338 14.516 21.8335 14V13H27.8335V14Z" fill="#D10121"/>
</svg>
