<svg width="12" height="11" viewBox="0 0 12 11" fill="none" xmlns="http://www.w3.org/2000/svg">
<path d="M5.92774 10.941C4.96843 10.9571 4.01969 10.7388 3.16386 10.3051C2.36564 9.89537 1.70024 9.26731 1.24514 8.49405C0.778961 7.70926 0.546206 6.76717 0.546876 5.66779V5.33476C0.546876 4.23605 0.779631 3.29027 1.24514 2.49743C1.69636 1.72109 2.36279 1.09206 3.16386 0.68637C4.02151 0.258787 4.96955 0.044123 5.92774 0.0605482C6.88248 0.0431586 7.82717 0.257922 8.68055 0.68637C9.47863 1.09373 10.1424 1.72253 10.5922 2.49743C11.0577 3.29027 11.2925 4.23605 11.2965 5.33476V5.66779C11.2965 6.7665 11.0618 7.70859 10.5922 8.49405C10.1385 9.26591 9.47579 9.89374 8.68055 10.3051C7.829 10.7397 6.88361 10.958 5.92774 10.941ZM5.92774 8.81401C6.80442 8.81401 7.52047 8.53229 8.07586 7.96884C8.63125 7.4054 8.90928 6.61625 8.90995 5.60139V5.39412C8.90995 4.37926 8.63192 3.5901 8.07586 3.02666C7.5198 2.46322 6.80375 2.1815 5.92774 2.1815C5.05172 2.1815 4.33568 2.46322 3.77962 3.02666C3.22356 3.5901 2.94553 4.37926 2.94553 5.39412V5.60239C2.94553 6.61726 3.22356 7.40641 3.77962 7.96985C4.33568 8.53329 5.05172 8.81501 5.92774 8.81501V8.81401Z" fill="#101828"/>
</svg>
