<svg width="684" height="555" viewBox="0 0 684 555" fill="none" xmlns="http://www.w3.org/2000/svg">
<path d="M658.085 385.607C656.026 404.014 656.09 415.599 658.729 416.049C661.367 416.5 666.066 405.751 671.601 387.988C674.304 379.106 677.264 368.68 680.225 356.58C680.933 353.556 681.705 350.724 682.477 347.12C683.344 342.873 683.344 338.494 682.477 334.247C681.935 331.357 680.789 328.613 679.114 326.196C677.44 323.778 675.274 321.741 672.759 320.217C667.95 317.491 662.519 316.05 656.991 316.034C652.683 315.98 648.378 316.281 644.119 316.935C640.386 317.45 636.717 318.093 633.049 318.672C625.841 319.959 618.89 321.375 612.389 322.92C600.99 325.79 589.771 329.336 578.793 333.539C559.936 340.748 549.445 347.441 550.411 349.629C551.376 351.818 563.669 349.629 582.591 345.575C592.245 343.644 603.636 341.327 616.38 339.139C622.816 338.109 629.252 337.015 636.396 336.05C643.062 334.953 649.79 334.265 656.54 333.99H657.248C648.901 339.958 640.907 346.404 633.306 353.298C615.35 368.294 586.517 393.78 535.737 431.302C510.314 449.774 479.1 471.72 440.548 494.633C419.834 506.892 397.87 516.903 375.03 524.496C349.324 533.43 321.678 535.231 295.03 529.709C266.042 522.41 240.697 504.82 223.719 480.216C207.425 457.157 196.777 430.592 192.633 402.662C223.327 398.691 253.121 389.528 280.742 375.567C317.798 357.029 349.319 329.06 372.134 294.473C383.095 276.815 389.712 256.81 391.441 236.098C392.371 225.494 391.368 214.808 388.481 204.562C385.457 193.614 379.75 183.593 371.876 175.407C363.248 166.991 352.746 160.742 341.233 157.173C329.721 153.604 317.526 152.817 305.65 154.876C283.701 159.041 263.197 168.794 246.117 183.195C237.93 189.732 230.386 197.038 223.591 205.012C220.18 208.938 217.155 213.122 214.13 217.305C211.105 221.489 208.659 225.608 206.02 230.177C195.96 246.857 187.677 264.545 181.306 282.953C169.646 316.979 165.026 353.021 167.726 388.889C165.86 388.889 163.993 388.889 162.191 388.889C124.862 389.661 87.4692 382.002 59.2152 363.66C45.5224 355.17 34.2069 343.345 26.3272 329.292C19.1298 315.93 14.8726 301.184 13.8414 286.042C12.3736 257.379 15.9906 228.682 24.5252 201.28C31.247 176.795 39.8541 152.867 50.2692 129.711C65.6123 95.7986 84.5112 63.6098 106.648 33.6861C122.481 12.3829 132.392 1.50605 131.491 0.669365C130.59 -0.167316 128.402 2.92206 123.382 8.0065C120.872 10.4522 117.912 13.7345 114.436 17.5961C110.961 21.4577 107.035 25.8986 102.787 31.1117C62.2723 80.4479 31.9326 137.321 13.5196 198.448C3.97837 226.874 -0.38146 256.783 0.64755 286.75C1.48164 303.548 5.86883 319.978 13.5196 334.955C22.2523 351.115 34.9127 364.815 50.3335 374.794C81.9986 395.84 122.352 404.4 162.513 404.207C164.83 404.207 167.147 404.207 169.464 404.207C173.873 435.814 185.766 465.911 204.154 491.994C214.426 506.418 227.07 518.996 241.547 529.194C255.955 539.315 272.164 546.59 289.302 550.626C305.494 554.372 322.185 555.481 338.731 553.908C353.739 552.53 368.547 549.486 382.882 544.833C407.4 536.671 430.964 525.882 453.163 512.654C486.496 492.448 518.722 470.469 549.703 446.813C583.468 421.48 615.446 393.847 645.406 364.11C652.068 357.49 658.384 350.53 664.328 343.258C664.328 346.347 663.362 349.694 662.783 353.362C660.788 365.398 659.243 376.275 658.214 385.542L658.085 385.607ZM203.253 289.002C209.054 271.913 216.625 255.476 225.843 239.96C228.225 236.098 230.67 232.108 233.245 228.375C235.756 224.673 238.463 221.106 241.354 217.691C247.153 210.648 253.619 204.182 260.662 198.383C274.599 186.385 291.369 178.144 309.383 174.441C317.963 173.01 326.754 173.494 335.126 175.857C343.245 178.094 350.635 182.422 356.558 188.408C362.177 194.689 366.401 202.088 368.952 210.12C371.503 218.151 372.325 226.632 371.361 235.004C369.913 252.918 364.34 270.254 355.078 285.656C334.376 317.563 305.687 343.501 271.861 360.892C246.534 373.964 219.183 382.667 190.96 386.636C188.423 353.495 192.582 320.181 203.188 288.68L203.253 289.002ZM663.298 335.857C663.298 335.857 663.298 335.857 663.298 335.47C663.481 335.61 663.634 335.785 663.749 335.985" fill="#EFC959"/>
</svg>
