<svg width="16" height="11" viewBox="0 0 16 11" fill="none" xmlns="http://www.w3.org/2000/svg">
<path d="M0.415527 10.649V0.345057H2.77192V1.49206H3.12709C3.34182 1.10838 3.65423 0.788327 4.03262 0.564397C4.45654 0.292738 5.023 0.158585 5.73199 0.161939C6.48258 0.161939 7.08626 0.314873 7.54305 0.620741C7.98776 0.911007 8.34747 1.31411 8.58542 1.78887H8.91946C9.1535 1.31799 9.5053 0.915595 9.9407 0.620741C10.3861 0.314873 11.0189 0.161939 11.8393 0.161939C12.4454 0.153938 13.044 0.297098 13.5809 0.578483C14.1068 0.861162 14.541 1.28806 14.8326 1.809C15.1445 2.35097 15.3008 3.02543 15.3014 3.83235V10.653H12.9088V3.99535C12.9088 3.3977 12.7488 2.94225 12.4289 2.62901C12.1089 2.31576 11.6642 2.15947 11.0947 2.16014C10.4689 2.16014 9.97155 2.36506 9.60263 2.7749C9.23371 3.18473 9.04959 3.77232 9.05026 4.53766V10.649H6.67274V3.99535C6.67274 3.3977 6.51276 2.94225 6.19281 2.62901C5.87285 2.31576 5.4278 2.15947 4.85765 2.16014C4.21774 2.16014 3.71736 2.36506 3.35649 2.7749C2.99562 3.18473 2.81484 3.77232 2.81417 4.53766V10.649H0.415527Z" fill="#101828"/>
</svg>
