<svg width="12" height="11" viewBox="0 0 12 11" fill="none" xmlns="http://www.w3.org/2000/svg">
<path d="M6.08155 10.9408C5.05192 10.9408 4.14472 10.7218 3.35993 10.2838C2.58238 9.85404 1.94494 9.20961 1.52371 8.42742C1.0857 7.62854 0.866699 6.6935 0.866699 5.62229V5.37176C0.866699 4.28714 1.08235 3.34807 1.51365 2.55456C1.92748 1.77796 2.55622 1.13699 3.32471 0.708282C4.1028 0.270274 4.9996 0.0512695 6.01514 0.0512695C7.01659 0.0512695 7.89261 0.270274 8.64319 0.708282C9.39143 1.14379 9.99929 1.78447 10.3949 2.55456C10.8114 3.34606 11.02 4.27071 11.0207 5.3285V6.18372H3.28648C3.31465 6.98864 3.59972 7.63492 4.1417 8.12256C4.68368 8.61021 5.35108 8.85369 6.14393 8.85302C6.92268 8.85302 7.49988 8.68265 7.8755 8.3419C8.23744 8.01966 8.52834 7.62561 8.72972 7.18484L10.7118 8.2111C10.478 8.64256 10.1943 9.04509 9.86666 9.41043C9.45481 9.86738 8.9548 10.2363 8.39669 10.4951C7.78428 10.7922 7.01257 10.9408 6.08155 10.9408ZM3.3076 4.37065H8.58383C8.52882 3.68915 8.26823 3.14684 7.80205 2.74371C7.33587 2.34058 6.73454 2.13936 5.99804 2.14003C5.23337 2.14003 4.62163 2.34126 4.16283 2.74371C3.70403 3.14617 3.41895 3.68848 3.3076 4.37065Z" fill="#101828"/>
</svg>
