<svg width="18" height="20" viewBox="0 0 18 20" fill="none" xmlns="http://www.w3.org/2000/svg">
<path d="M15.2237 19.8457H1.66385C1.42324 19.8463 1.18648 19.7854 0.976137 19.6685C0.765794 19.5517 0.588882 19.3829 0.462269 19.1783C0.335655 18.9737 0.263561 18.7401 0.252859 18.4998C0.242157 18.2594 0.293205 18.0203 0.401136 17.8052L4.00313 10.5892L2.35708 10.6143H2.33495C2.09484 10.6145 1.85866 10.5534 1.64884 10.4366C1.43902 10.3199 1.26253 10.1515 1.13611 9.94733C1.0097 9.7432 0.937566 9.51013 0.926562 9.27028C0.915558 9.03042 0.966049 8.79174 1.07324 8.57688L4.88753 0.930183C5.00444 0.695383 5.18459 0.497888 5.40768 0.359944C5.63077 0.222 5.88795 0.149087 6.15025 0.149415L10.688 0.15847C14.3775 0.15847 17.3808 2.98473 17.3808 6.45995C17.3808 9.19365 15.5698 11.4997 12.991 12.3731L16.4059 17.6694C16.5441 17.8821 16.6224 18.1282 16.6324 18.3816C16.6424 18.6351 16.5837 18.8866 16.4626 19.1095C16.3415 19.3324 16.1625 19.5185 15.9444 19.648C15.7263 19.7776 15.4773 19.8459 15.2237 19.8457ZM3.94478 17.0285H12.6348L9.46247 12.1085C9.3156 11.8804 9.23737 11.615 9.2371 11.3438C9.2371 10.9702 9.3855 10.6119 9.64967 10.3477C9.91383 10.0836 10.2721 9.93518 10.6457 9.93518H10.8027C12.8753 9.88085 14.5596 8.32535 14.5596 6.47002C14.5596 4.5513 12.821 2.99077 10.6849 2.99077L7.01855 2.98272L4.63399 7.75687L6.30318 7.73172C6.54742 7.7311 6.78763 7.794 7.00023 7.91424C7.21282 8.03448 7.3905 8.20794 7.51582 8.41758C7.64114 8.62722 7.70979 8.86585 7.71504 9.11003C7.72029 9.35422 7.66196 9.59558 7.54577 9.81042V9.81847L3.94478 17.0285Z" fill="#D10121"/>
</svg>
