<svg width="12" height="11" viewBox="0 0 12 11" fill="none" xmlns="http://www.w3.org/2000/svg">
<path d="M6.20626 10.9407C5.26505 10.9549 4.33448 10.7402 3.49471 10.3149C2.69683 9.90724 2.03318 9.27852 1.58303 8.50383C1.11752 7.71099 0.884766 6.7585 0.884766 5.64638V5.35359C0.884766 4.24214 1.11752 3.28965 1.58303 2.49614C2.03318 1.72145 2.69683 1.09272 3.49471 0.685079C4.33448 0.259798 5.26505 0.045026 6.20626 0.0592576C7.19362 0.0592576 8.03845 0.232985 8.74074 0.580441C9.41757 0.907367 10.0018 1.39854 10.4401 2.00917C10.871 2.61373 11.1564 3.30961 11.2742 4.04258L8.96008 4.52251C8.90993 4.10694 8.77537 3.70601 8.56466 3.34432C8.35178 2.9867 8.04483 2.69436 7.67725 2.49916C7.24145 2.2782 6.75701 2.17059 6.26865 2.18625C5.73531 2.17748 5.20833 2.30308 4.73628 2.55148C4.27858 2.80035 3.90734 3.18247 3.67178 3.64717C3.41488 4.1328 3.28643 4.7167 3.28643 5.39887V5.60714C3.28643 6.28863 3.41488 6.86918 3.67178 7.34877C3.91139 7.81031 4.28163 8.19104 4.73628 8.44346C5.20575 8.69641 5.73243 8.82427 6.26563 8.81473C7.11414 8.81473 7.7574 8.59572 8.19541 8.15771C8.64552 7.69409 8.93444 7.0979 9.01944 6.45733L11.3336 6.99964C11.1713 7.71367 10.8664 8.38753 10.4371 8.98074C9.99537 9.58819 9.41202 10.0786 8.73772 10.4095C8.03745 10.7643 7.19362 10.9414 6.20626 10.9407Z" fill="#101828"/>
</svg>
