<svg width="23" height="23" viewBox="0 0 23 23" fill="none" xmlns="http://www.w3.org/2000/svg">
<path d="M11.6888 0.624873C18.4633 0.598606 22.9537 4.9865 22.9837 11.6609C23.0137 18.2302 18.3319 22.9971 11.8514 22.9946C5.28956 22.9946 0.742816 18.4066 0.680275 11.7284C0.620236 5.23416 5.16573 0.64989 11.6888 0.624873ZM17.6602 11.7972C17.2424 9.48446 16.9973 7.263 16.4094 5.1341C15.839 3.05147 14.4081 1.65555 12.1003 1.53297C9.65619 1.40789 8.14395 2.79881 7.37719 4.9102C5.69358 9.55201 5.73486 14.2564 7.43473 18.8894C8.1527 20.847 9.56113 22.0828 11.8051 22.0978C14.1642 22.114 15.6526 20.7644 16.2756 18.7206C16.971 16.4791 17.2262 14.1013 17.6602 11.7972Z" fill="#FE0606"/>
</svg>
