<svg width="15" height="23" viewBox="0 0 15 23" fill="none" xmlns="http://www.w3.org/2000/svg">
<path d="M0.235487 22.7915V15.1703L0.485652 15.1277C0.910932 16.1897 1.22114 17.3179 1.78401 18.3011C3.02107 20.4612 4.77098 22.2462 7.40396 22.0173C8.65479 21.9084 10.1758 20.9566 10.9175 19.9171C11.9119 18.5237 11.0163 16.9652 9.72049 16.0646C7.95808 14.84 6.0168 13.8782 4.17183 12.7699C2.20554 11.5879 0.524427 10.1432 0.232985 7.68032C-0.30612 3.15483 3.64649 -0.227399 8.25327 0.814538C9.11634 1.00967 9.92313 1.50875 10.7874 1.61882C11.5379 1.71388 12.321 1.45246 13.3104 1.31862V8.18815C12.8776 7.1212 12.6237 6.49704 12.3722 5.87287C11.4817 3.66517 9.97066 2.08287 7.59534 1.62007C5.93174 1.29485 4.45077 1.80144 3.70152 3.4863C2.9873 5.10111 3.88414 6.2969 5.10495 7.10243C7.459 8.6497 10.0882 9.81422 12.3097 11.5203C16.3786 14.6474 15.4218 20.824 10.5285 22.385C8.58224 23.0104 6.17941 22.5939 4.07427 22.1899C2.62081 21.9097 1.38499 21.2468 0.235487 22.7915Z" fill="#FE0909"/>
</svg>
