<svg width="12" height="12" viewBox="0 0 12 12" fill="none" xmlns="http://www.w3.org/2000/svg">
<path d="M9.18812 6.5625C9.18812 6.71084 9.14413 6.85584 9.06172 6.97918C8.97931 7.10251 8.86218 7.19864 8.72513 7.25541C8.58809 7.31218 8.43729 7.32703 8.2918 7.29809C8.14632 7.26915 8.01268 7.19772 7.90779 7.09283C7.8029 6.98794 7.73147 6.8543 7.70253 6.70882C7.67359 6.56333 7.68844 6.41253 7.74521 6.27549C7.80198 6.13844 7.89811 6.02131 8.02144 5.9389C8.14478 5.85649 8.28978 5.8125 8.43812 5.8125C8.63703 5.8125 8.8278 5.89152 8.96845 6.03217C9.1091 6.17282 9.18812 6.36359 9.18812 6.5625ZM11.0631 5.0625V8.8125C11.0631 9.21032 10.9051 9.59186 10.6238 9.87316C10.3425 10.1545 9.96095 10.3125 9.56312 10.3125H2.81312C2.4153 10.3125 2.03376 10.1545 1.75246 9.87316C1.47116 9.59186 1.31312 9.21032 1.31312 8.8125V3.23063C1.30735 3.03004 1.34189 2.83034 1.41468 2.64335C1.48748 2.45635 1.59705 2.28586 1.73692 2.14198C1.87678 1.99809 2.0441 1.88373 2.22896 1.80566C2.41381 1.7276 2.61246 1.68742 2.81312 1.6875H9.00062C9.1498 1.6875 9.29288 1.74676 9.39837 1.85225C9.50386 1.95774 9.56312 2.10082 9.56312 2.25C9.56312 2.39918 9.50386 2.54226 9.39837 2.64775C9.29288 2.75324 9.1498 2.8125 9.00062 2.8125H2.81312C2.76283 2.81247 2.71305 2.82256 2.66674 2.84216C2.62043 2.86177 2.57854 2.89049 2.54355 2.92661C2.50857 2.96273 2.4812 3.00552 2.46309 3.05244C2.44498 3.09935 2.43649 3.14943 2.43812 3.19969V3.20344C2.446 3.30273 2.49156 3.39524 2.56548 3.46201C2.63939 3.52877 2.73604 3.56473 2.83562 3.5625H9.56312C9.96095 3.5625 10.3425 3.72054 10.6238 4.00184C10.9051 4.28314 11.0631 4.66468 11.0631 5.0625ZM9.93812 5.0625C9.93812 4.96304 9.89861 4.86766 9.82829 4.79734C9.75796 4.72701 9.66258 4.6875 9.56312 4.6875H2.83562C2.70151 4.68756 2.56794 4.67055 2.43812 4.63688V8.8125C2.43812 8.91196 2.47763 9.00734 2.54796 9.07767C2.61828 9.14799 2.71366 9.1875 2.81312 9.1875H9.56312C9.66258 9.1875 9.75796 9.14799 9.82829 9.07767C9.89861 9.00734 9.93812 8.91196 9.93812 8.8125V5.0625Z" fill="white"/>
</svg>
